# Blender v2.79 (sub 0) OBJ File: 'floor_navimesh.blend'
# www.blender.org
mtllib floor_navimesh.mtl
o Plane_Plane.001
v -100.000000 0.000000 100.000000
v 100.000000 0.000000 100.000000
v -100.000000 0.000000 -100.000000
v 100.000000 0.000000 -100.000000
v -100.000000 0.000000 0.000000
v 0.000000 0.000000 100.000000
v 100.000000 0.000000 0.000000
v 0.000000 0.000000 -100.000000
v -100.000000 0.000000 50.000000
v 50.000000 0.000000 100.000000
v 100.000000 0.000000 -50.000000
v -50.000000 0.000000 -100.000000
v -100.000000 0.000000 -50.000000
v -50.000000 0.000000 100.000000
v 100.000000 0.000000 50.000000
v 50.000000 0.000000 -100.000000
v 0.000000 0.000000 -50.000000
v 0.000000 0.000000 50.000000
v -50.000000 0.000000 0.000000
v 50.000000 0.000000 0.000000
v 50.000000 0.000000 50.000000
v -50.000000 0.000000 50.000000
v -50.000000 0.000000 -50.000000
v 50.000000 0.000000 -50.000000
v -100.000000 0.000000 75.000000
v 75.000000 0.000000 100.000000
v 100.000000 0.000000 -75.000000
v -75.000000 0.000000 -100.000000
v -100.000000 0.000000 -25.000000
v -25.000000 0.000000 100.000000
v 100.000000 0.000000 25.000000
v 25.000000 0.000000 -100.000000
v 0.000000 0.000000 -75.000000
v -75.000000 0.000000 0.000000
v 25.000000 0.000000 0.000000
v -100.000000 0.000000 25.000000
v 25.000000 0.000000 100.000000
v 100.000000 0.000000 -25.000000
v -25.000000 0.000000 -100.000000
v -100.000000 0.000000 -75.000000
v -75.000000 0.000000 100.000000
v 100.000000 0.000000 75.000000
v 75.000000 0.000000 -100.000000
v 0.000000 0.000000 75.000000
v -25.000000 0.000000 0.000000
v 75.000000 0.000000 0.000000
v 50.000000 0.000000 25.000000
v 50.000000 0.000000 75.000000
v 25.000000 0.000000 50.000000
v 75.000000 0.000000 50.000000
v -50.000000 0.000000 25.000000
v -50.000000 0.000000 75.000000
v -75.000000 0.000000 50.000000
v -25.000000 0.000000 50.000000
v -50.000000 0.000000 -75.000000
v -50.000000 0.000000 -25.000000
v -75.000000 0.000000 -50.000000
v -25.000000 0.000000 -50.000000
v 50.000000 0.000000 -75.000000
v 50.000000 0.000000 -25.000000
v 25.000000 0.000000 -50.000000
v 75.000000 0.000000 -50.000000
v 75.000000 0.000000 -25.000000
v 25.000000 0.000000 -25.000000
v 25.000000 0.000000 -75.000000
v -25.000000 0.000000 -25.000000
v -75.000000 0.000000 -25.000000
v -75.000000 0.000000 -75.000000
v -25.000000 0.000000 75.000000
v -75.000000 0.000000 75.000000
v -75.000000 0.000000 25.000000
v 75.000000 0.000000 75.000000
v 25.000000 0.000000 75.000000
v 25.000000 0.000000 25.000000
v 75.000000 0.000000 25.000000
v -25.000000 0.000000 25.000000
v -25.000000 0.000000 -75.000000
v 75.000000 0.000000 -75.000000
v -9.999999 0.000000 -50.000000
v 9.999999 0.000000 50.000000
v 9.999999 0.000000 -50.000000
v -9.999999 0.000000 50.000000
vn 0.0000 1.0000 0.0000
usemtl None
s off
f 78//1 27//1 4//1 43//1
f 77//1 33//1 8//1 39//1
f 75//1 31//1 7//1 46//1
f 74//1 47//1 20//1 35//1
f 73//1 48//1 21//1 49//1
f 72//1 42//1 15//1 50//1
f 71//1 51//1 19//1 34//1
f 70//1 52//1 22//1 53//1
f 69//1 44//1 18//1 82//1 54//1
f 68//1 55//1 12//1 28//1
f 67//1 56//1 23//1 57//1
f 65//1 59//1 16//1 32//1
f 64//1 60//1 24//1 61//1
f 63//1 38//1 11//1 62//1
f 60//1 63//1 62//1 24//1
f 20//1 46//1 63//1 60//1
f 46//1 7//1 38//1 63//1
f 35//1 20//1 60//1 64//1
f 33//1 65//1 32//1 8//1
f 17//1 81//1 61//1 65//1 33//1
f 61//1 24//1 59//1 65//1
f 56//1 66//1 58//1 23//1
f 19//1 45//1 66//1 56//1
f 29//1 67//1 57//1 13//1
f 5//1 34//1 67//1 29//1
f 34//1 19//1 56//1 67//1
f 40//1 68//1 28//1 3//1
f 13//1 57//1 68//1 40//1
f 57//1 23//1 55//1 68//1
f 52//1 69//1 54//1 22//1
f 14//1 30//1 69//1 52//1
f 30//1 6//1 44//1 69//1
f 25//1 70//1 53//1 9//1
f 1//1 41//1 70//1 25//1
f 41//1 14//1 52//1 70//1
f 36//1 71//1 34//1 5//1
f 9//1 53//1 71//1 36//1
f 53//1 22//1 51//1 71//1
f 48//1 72//1 50//1 21//1
f 10//1 26//1 72//1 48//1
f 26//1 2//1 42//1 72//1
f 44//1 73//1 49//1 80//1 18//1
f 6//1 37//1 73//1 44//1
f 37//1 10//1 48//1 73//1
f 49//1 21//1 47//1 74//1
f 47//1 75//1 46//1 20//1
f 21//1 50//1 75//1 47//1
f 50//1 15//1 31//1 75//1
f 51//1 76//1 45//1 19//1
f 22//1 54//1 76//1 51//1
f 55//1 77//1 39//1 12//1
f 23//1 58//1 77//1 55//1
f 58//1 79//1 17//1 33//1 77//1
f 59//1 78//1 43//1 16//1
f 24//1 62//1 78//1 59//1
f 62//1 11//1 27//1 78//1
