# Blender v2.79 (sub 0) OBJ File: 'ceil1.blend'
# www.blender.org
mtllib ceil1.mtl
o Plane
v 0.127883 1.942962 -0.032301
v 0.074791 8.597155 11.554531
v -0.086175 10.006680 23.793402
v -0.073627 13.849947 35.869919
v 0.018495 1.354841 49.968685
v -0.011650 1.026008 62.739510
v 0.291949 5.465104 74.852142
v 0.250197 1.635397 87.719032
v 12.599487 0.932634 0.040002
v 25.074635 1.869824 -0.159986
v 37.499512 7.028025 -0.998861
v 50.086029 0.757622 -0.054607
v 63.193691 0.867907 -0.113407
v 75.026314 0.072463 -0.000215
v 87.536156 0.061596 0.006546
v 0.142703 2.292222 -12.589622
v -0.053631 2.466091 -25.476833
v -0.314645 3.424155 -38.581242
v 0.054369 1.165077 -50.101727
v 0.098283 0.952426 -62.801678
v 0.196451 1.054866 -75.923264
v 0.036941 0.514132 -87.929161
v -12.392036 2.643002 -0.125258
v -28.774864 5.565097 -1.810337
v -38.443897 2.663453 -0.487043
v -50.539486 2.249117 -0.290572
v -64.186577 2.964912 -0.129135
v -76.207924 2.014768 -0.101507
v -88.420174 1.502577 -0.077407
v -12.426572 7.421574 11.726717
v -12.141563 3.408001 25.209105
v -12.604338 5.509546 36.846306
v -12.531829 2.684617 49.748215
v -12.540841 1.743089 62.504929
v -12.491044 0.646246 75.087395
v -12.447403 0.366360 87.558838
v -24.910685 2.928738 12.314710
v -25.040150 1.554881 24.948774
v -25.046360 7.144584 36.584263
v -25.136393 7.178483 49.014046
v -25.431383 20.115047 59.381622
v -25.002598 1.145526 74.981377
v -24.953592 0.470992 87.906578
v -41.526993 6.048461 10.530096
v -38.788284 7.695940 24.705454
v -39.130619 8.397638 37.364857
v -37.548992 3.454027 49.645851
v -37.533813 4.402338 62.255581
v -37.577534 4.804068 74.439529
v -37.503044 0.390317 87.505775
v -59.179981 11.986383 8.047273
v -52.571602 4.252466 23.742260
v -52.168976 3.284605 38.732548
v -51.365166 2.369073 50.612526
v -50.034134 0.926406 62.519402
v -50.041931 0.726779 75.023827
v -50.194813 0.697961 87.696777
v -66.022339 4.942093 11.142264
v -62.732010 1.668729 24.876289
v -63.162464 1.801398 37.828632
v -62.808895 0.666999 50.164829
v -62.743580 0.878502 62.739670
v -63.588844 3.731777 76.099846
v -63.691193 3.945724 88.703232
v -78.625420 6.152272 12.197609
v -75.512474 1.181435 24.980717
v -75.110016 0.558131 37.556782
v -75.143608 0.673866 50.144363
v -75.787064 2.629423 63.295013
v -75.430969 1.425135 75.435326
v -76.162270 3.837312 88.674011
v -87.691414 0.343294 12.483898
v -87.578606 0.194519 24.993460
v -88.976997 1.467494 37.446064
v -88.087967 0.616989 49.999485
v -88.234787 2.425939 63.242210
v -88.106575 2.002652 75.612709
v -87.611710 0.368826 87.612846
v 12.571028 0.711974 12.527010
v 25.097898 1.504728 12.440138
v 37.614716 1.054509 12.447706
v 50.299908 0.584939 12.451814
v 62.763172 0.513609 12.493050
v 76.449593 2.959191 12.445558
v 88.058960 1.140415 12.477331
v 12.577385 1.571960 24.975222
v 25.226475 1.203391 25.200630
v 38.263996 1.387253 24.977728
v 50.992924 1.979243 24.820766
v 62.774284 0.558508 25.007872
v 76.575249 3.244342 24.959187
v 88.849609 2.754202 24.945557
v 12.539053 1.060914 37.510563
v 25.166616 8.706336 36.648743
v 38.232525 13.264257 35.644993
v 50.728394 2.373748 37.385834
v 63.046581 0.682080 37.525368
v 76.678085 1.433091 37.506985
v 87.588737 0.185536 37.498428
v 12.592842 0.777385 50.148796
v 25.229099 2.710545 50.044449
v 37.740749 3.194448 49.996147
v 50.255032 2.241194 50.145573
v 63.125271 0.823484 50.126179
v 76.318344 0.913451 50.014748
v 88.099472 1.002695 49.940559
v 12.562418 0.490487 62.574757
v 25.178566 0.847456 62.700962
v 37.748768 4.037818 62.399559
v 50.262356 12.182678 61.356319
v 62.775124 1.349716 62.797070
v 77.873543 1.925114 62.540638
v 88.554474 1.767596 62.397045
v 12.605579 0.528725 75.122276
v 25.082844 0.382060 75.092064
v 37.775280 2.173145 75.189346
v 50.365875 6.582476 74.767899
v 62.950645 1.231986 75.782570
v 76.058510 0.717055 74.977295
v 87.515533 0.067739 75.015953
v 12.785101 3.629368 87.515549
v 25.493542 1.270403 87.744835
v 38.188683 1.656651 87.806038
v 50.157547 0.722342 87.677231
v 62.602638 0.472515 87.614822
v 75.281433 0.745380 88.074944
v 87.576401 0.253529 87.548279
v 12.651807 2.645552 -12.621260
v 12.605665 1.089688 -24.988932
v 12.532568 1.316725 -37.659542
v 12.577093 0.951463 -50.057930
v 14.533615 4.820331 -68.497627
v 12.958130 1.327458 -76.329094
v 12.525010 0.212035 -87.606476
v 25.070330 1.428829 -12.613135
v 25.143013 2.148170 -25.076485
v 25.077347 0.596488 -37.600109
v 25.373114 1.115041 -51.054222
v 26.545275 3.625613 -67.070099
v 25.673229 1.699909 -76.979805
v 25.040297 0.238451 -87.603508
v 37.600266 3.998225 -12.942020
v 37.578712 1.637718 -25.133801
v 37.561886 1.096127 -37.577839
v 37.671299 0.959357 -50.442444
v 37.626205 0.459094 -62.855740
v 37.555782 0.257513 -75.151260
v 37.515305 0.160662 -87.531639
v 50.061058 1.087216 -12.577741
v 50.070625 1.301862 -25.096249
v 50.071281 1.272794 -37.591290
v 50.070351 1.250292 -50.089272
v 50.155132 0.810146 -62.746918
v 50.149353 0.451803 -75.204758
v 50.008518 0.151364 -87.510803
v 62.775421 0.611701 -12.563005
v 62.539642 0.679257 -25.048717
v 62.816029 0.904980 -37.613426
v 62.560417 1.073746 -50.076664
v 62.632572 0.889947 -62.578728
v 63.523029 0.905759 -75.243652
v 62.517376 0.135185 -87.519302
v 75.650917 1.309835 -12.402365
v 75.213570 0.592023 -24.980495
v 75.072983 0.322742 -37.530224
v 76.319153 1.001372 -50.304020
v 75.279930 0.427355 -62.577629
v 76.851486 1.453537 -75.504944
v 75.388275 1.443763 -87.906509
v 88.324333 1.396561 -12.343928
v 87.876877 0.675668 -24.932016
v 88.452423 1.672821 -37.325050
v 87.503403 0.060488 -50.004322
v 87.501434 0.025401 -62.501812
v 88.337158 0.849078 -75.289513
v 88.161072 2.433888 -88.191727
v -14.714606 3.179203 -13.564929
v -30.047958 6.704545 -14.896835
v -40.670692 4.664129 -14.021937
v -51.749420 2.945416 -13.348720
v -62.871964 0.791996 -12.759167
v -75.919014 1.506222 -12.578609
v -89.452919 3.184223 -12.664284
v -16.081039 5.148902 -26.860783
v -27.294449 3.593033 -26.163790
v -37.562454 2.868225 -25.273201
v -50.069363 1.615589 -25.102047
v -66.549538 5.519125 -27.030033
v -75.195610 0.529943 -25.145267
v -87.812996 0.523334 -25.028679
v -13.773875 2.565939 -38.161171
v -27.573496 4.147780 -38.784687
v -37.479504 1.877540 -37.579861
v -52.984547 4.405684 -39.012459
v -62.796940 2.381484 -37.865669
v -77.034836 3.172065 -38.679195
v -87.684013 0.317204 -37.524887
v -12.824479 2.011330 -50.566601
v -25.765070 1.713139 -50.420086
v -38.063179 3.445615 -50.973614
v -50.906307 3.509598 -51.287727
v -62.950851 2.322883 -50.650280
v -75.456711 1.971218 -50.641857
v -87.830986 0.582760 -50.064671
v -12.852982 1.420117 -63.034039
v -25.311968 1.226826 -62.944458
v -37.987804 1.729437 -63.989891
v -50.765682 2.974302 -63.577507
v -63.778843 4.819774 -64.324554
v -75.298347 1.119651 -63.621391
v -87.529846 0.100953 -62.536247
v -12.159986 2.187610 -77.219620
v -24.618017 2.408880 -77.456879
v -37.948765 1.801207 -77.034309
v -50.850319 3.491930 -80.971107
v -63.005363 1.987231 -75.710175
v -75.162193 0.610963 -75.231461
v -87.535515 0.132508 -75.020714
v -12.582386 0.349118 -87.654236
v -25.128300 0.889422 -88.015984
v -37.706177 0.763463 -87.796570
v -50.111240 0.423760 -87.657913
v -62.602009 0.318457 -87.641495
v -75.040504 0.150072 -87.558250
v -87.570786 0.264356 -87.535294
v -100.150337 0.562009 -87.565598
v -100.067451 0.252100 -75.030350
v -100.016258 0.029714 -62.504272
v -100.664246 1.018435 -50.049603
v -100.117302 0.179687 -37.508652
v -100.003120 0.005089 -25.000263
v -100.124672 0.203265 -12.510488
v -100.272682 0.346046 0.030248
v -100.166954 0.114324 12.571815
v -100.000000 0.004760 25.000000
v -100.007080 0.007689 37.499741
v -100.035141 0.032956 49.998714
v -100.034821 0.114945 62.535168
v -100.055161 0.182124 75.055717
v -100.000000 0.001159 87.500000
v -87.500000 0.000325 100.000000
v -75.048904 0.161473 100.049400
v -62.672062 0.568072 100.173798
v -49.967995 0.183459 100.301361
v -37.251274 1.196136 102.181580
v -24.945644 0.258727 100.476746
v -12.503222 0.022893 100.025047
v 0.082866 0.381493 100.092712
v 12.742083 1.129089 100.268913
v 25.230186 1.060359 100.257431
v 37.546791 0.215419 100.052345
v 50.024841 0.114236 100.027847
v 62.931477 1.127390 100.888741
v 75.028900 0.074192 100.060165
v 87.500000 0.000000 100.000000
v 100.000015 0.000038 87.500015
v 100.000526 0.002422 75.000587
v 100.577972 0.948794 62.435238
v 100.287628 0.471855 49.967644
v 100.014458 0.023717 37.498371
v 100.000000 0.000000 25.000000
v 100.000168 0.000345 12.499992
v 100.000229 0.000374 0.000042
v 100.105179 0.177793 -12.480049
v 100.477898 0.807939 -24.909363
v 100.029411 0.052305 -37.494652
v 100.000191 0.003423 -50.000244
v 100.000038 0.000700 -62.500046
v 100.000122 0.000432 -75.000122
v 100.022186 0.081692 -87.523216
v 87.640175 0.516061 -100.146675
v 75.901321 3.318330 -100.943115
v 62.521618 0.083369 -100.022682
v 50.000977 0.017326 -100.001236
v 37.501354 0.024110 -100.001717
v 25.001198 0.021283 -100.001511
v 12.662903 1.727551 -101.583389
v 0.095310 1.010246 -100.930344
v -12.514633 0.055402 -100.022377
v -25.062693 0.230507 -100.090469
v -37.606174 0.390376 -100.153221
v -50.217987 0.270201 -100.298294
v -62.507862 0.028907 -100.011353
v -75.002960 0.010890 -100.004280
v -87.500465 0.001706 -100.000671
v -100.000000 0.000000 100.000000
v 100.000000 0.000000 100.000000
v -100.000000 0.000000 -100.000000
v 100.001595 0.005896 -100.001678
vn -0.0185 0.8986 -0.4384
vn -0.2946 0.9506 0.0977
vn -0.5223 0.8248 -0.2167
vn -0.2223 0.8474 0.4822
vn 0.0803 0.9955 0.0497
vn -0.1586 0.9787 -0.1302
vn -0.2291 0.9608 0.1559
vn -0.0647 0.9959 0.0635
vn -0.0514 0.9959 -0.0746
vn -0.2354 0.9516 0.1977
vn -0.0017 0.9495 -0.3138
vn 0.2323 0.9668 0.1067
vn 0.6558 0.6737 -0.3408
vn 0.4720 0.7219 0.5060
vn 0.0245 0.9990 0.0375
vn 0.0144 0.9997 0.0222
vn 0.0088 0.9995 -0.0300
vn 0.2938 0.9551 -0.0383
vn 0.2449 0.9394 -0.2398
vn -0.0805 0.9767 0.1989
vn -0.6001 0.6813 -0.4190
vn -0.3322 0.7821 0.5273
vn 0.1314 0.9730 0.1899
vn 0.0333 0.9992 -0.0221
vn 0.1960 0.8627 -0.4662
vn 0.0580 0.9816 0.1819
vn -0.3038 0.9527 0.0098
vn -0.1971 0.9481 0.2494
vn -0.1694 0.9851 0.0292
vn -0.2898 0.9570 -0.0084
vn -0.1410 0.9757 0.1680
vn -0.0271 0.9996 -0.0102
vn -0.3211 0.7276 -0.6062
vn -0.3612 0.8270 0.4308
vn -0.1884 0.9817 0.0292
vn -0.1453 0.9853 0.0903
vn -0.0727 0.9959 0.0542
vn 0.1066 0.9895 -0.0980
vn 0.2249 0.9744 -0.0049
vn 0.1407 0.9785 0.1509
vn -0.0008 0.9679 -0.2512
vn 0.0404 0.9569 0.2877
vn -0.0699 0.9974 0.0191
vn -0.0513 0.9978 0.0414
vn 0.0671 0.9943 -0.0823
vn -0.0220 0.9976 -0.0649
vn -0.0954 0.9900 -0.1037
vn -0.0216 0.9547 0.2968
vn -0.2840 0.9495 -0.1330
vn -0.2954 0.9284 0.2256
vn -0.0029 0.9997 -0.0261
vn 0.0315 0.9991 0.0281
vn -0.0090 0.9899 -0.1415
vn 0.0152 0.9977 0.0660
vn -0.1178 0.9925 -0.0317
vn -0.1557 0.9724 0.1735
vn -0.0563 0.9968 0.0571
vn -0.0168 0.9998 0.0105
vn -0.0702 0.9960 -0.0549
vn -0.0885 0.9954 0.0358
vn -0.1185 0.9902 -0.0733
vn -0.1721 0.9850 0.0148
vn -0.0914 0.9929 0.0758
vn -0.0149 0.9998 0.0149
vn 0.3346 0.9107 -0.2422
vn -0.0687 0.9974 0.0233
vn -0.1728 0.9568 0.2338
vn 0.2436 0.9445 0.2206
vn -0.0015 0.9998 0.0210
vn -0.0640 0.9931 -0.0979
vn 0.0749 0.9839 -0.1624
vn 0.0491 0.9978 -0.0441
vn 0.5471 0.8338 -0.0732
vn -0.0167 0.9996 -0.0221
vn 0.0104 0.9999 -0.0016
vn -0.0052 0.9976 -0.0689
vn 0.0619 0.9963 -0.0594
vn -0.1835 0.9829 -0.0120
vn 0.0960 0.9922 -0.0789
vn 0.1661 0.9837 -0.0688
vn 0.6463 0.7562 -0.1017
vn -0.2726 0.9234 -0.2703
vn -0.1652 0.7414 -0.6504
vn 0.3641 0.8254 -0.4314
vn 0.1283 0.9915 -0.0205
vn -0.1239 0.9899 0.0685
vn 0.0738 0.9819 0.1747
vn 0.1218 0.9868 0.1063
vn 0.4091 0.8242 0.3917
vn -0.3382 0.9145 0.2221
vn -0.1486 0.8568 0.4938
vn 0.3819 0.8604 0.3374
vn 0.1225 0.9925 0.0016
vn -0.0313 0.9994 0.0147
vn 0.0509 0.9986 -0.0122
vn 0.0281 0.9983 -0.0516
vn 0.0442 0.9987 0.0245
vn -0.0901 0.9923 0.0848
vn -0.1443 0.9887 0.0400
vn -0.2663 0.8769 -0.4003
vn 0.4219 0.8326 -0.3589
vn -0.0242 0.9979 -0.0597
vn 0.0023 0.9975 -0.0711
vn 0.0557 0.9971 -0.0513
vn 0.2120 0.9610 -0.1775
vn -0.0084 0.9998 0.0171
vn -0.1920 0.9773 0.0899
vn -0.4213 0.8717 0.2504
vn 0.5213 0.8351 0.1754
vn -0.0002 0.9986 0.0521
vn 0.0367 0.9922 0.1193
vn 0.0357 0.9936 0.1067
vn 0.1175 0.9927 0.0280
vn 0.0990 0.9823 -0.1588
vn -0.0854 0.9963 -0.0119
vn -0.1307 0.9616 0.2413
vn 0.2017 0.9450 0.2574
vn 0.0098 0.9995 0.0298
vn 0.0478 0.9988 -0.0070
vn 0.0128 0.9999 -0.0074
vn -0.1069 0.9835 0.1460
vn 0.0944 0.9897 0.1073
vn 0.0187 0.9976 0.0672
vn 0.0427 0.9955 0.0843
vn -0.0300 0.9995 -0.0016
vn 0.0315 0.9995 0.0006
vn 0.0237 0.9990 0.0381
vn 0.0102 0.9999 0.0102
vn 0.0261 0.9963 0.0815
vn 0.0415 0.9976 -0.0550
vn 0.1328 0.9902 0.0438
vn 0.0946 0.9898 -0.1070
vn -0.1111 0.9878 0.1088
vn -0.1806 0.9729 -0.1447
vn 0.0009 0.9975 -0.0710
vn -0.0155 0.9971 0.0742
vn 0.0116 0.9987 0.0506
vn 0.0062 0.9994 -0.0337
vn -0.0135 0.9985 -0.0524
vn 0.0222 0.9997 0.0062
vn 0.0376 0.9820 0.1852
vn 0.0411 0.9540 -0.2970
vn -0.0187 0.9931 -0.1159
vn 0.0642 0.9967 0.0493
vn -0.2989 0.9446 -0.1356
vn -0.0830 0.9943 -0.0664
vn 0.0003 0.9965 -0.0835
vn -0.0142 0.9998 0.0143
vn 0.1251 0.9893 0.0749
vn 0.2216 0.9698 -0.1023
vn 0.0675 0.9953 -0.0694
vn 0.0030 0.9999 -0.0142
vn 0.3471 0.9323 -0.1018
vn 0.1299 0.9878 -0.0858
vn 0.0064 0.9997 -0.0229
vn -0.0187 0.9998 -0.0064
vn -0.0250 0.9990 -0.0375
vn -0.0216 0.9995 -0.0225
vn -0.0074 0.9998 -0.0160
vn 0.0007 0.9999 -0.0108
vn 0.0141 0.9999 0.0027
vn 0.0435 0.9990 0.0109
vn 0.0392 0.9992 0.0083
vn 0.0216 0.9998 0.0056
vn 0.0041 0.9997 -0.0248
vn -0.0206 0.9997 -0.0144
vn -0.0170 0.9989 -0.0427
vn -0.0020 1.0000 -0.0074
vn 0.0035 0.9992 0.0395
vn -0.0237 0.9994 -0.0253
vn 0.0269 0.9996 -0.0016
vn 0.0253 0.9991 0.0345
vn 0.0200 0.9993 -0.0313
vn -0.0029 0.9992 0.0404
vn -0.0713 0.9972 -0.0244
vn -0.1669 0.9837 0.0668
vn -0.0033 0.9947 0.1032
vn -0.0065 0.9984 -0.0568
vn -0.0552 0.9981 0.0282
vn -0.0159 0.9992 -0.0368
vn 0.0577 0.9980 -0.0270
vn 0.0414 0.9963 0.0755
vn -0.0157 0.9979 0.0631
vn 0.0738 0.9973 -0.0017
vn 0.0530 0.9966 0.0626
vn 0.0445 0.9990 -0.0038
vn 0.0615 0.9981 0.0100
vn 0.0689 0.9953 -0.0683
vn 0.0033 1.0000 -0.0015
vn 0.0357 0.9988 0.0337
vn 0.1320 0.9892 0.0640
vn 0.1197 0.9893 -0.0834
vn 0.0567 0.9980 0.0290
vn 0.1959 0.9800 0.0354
vn -0.2196 0.9651 0.1427
vn -0.0869 0.9899 0.1116
vn -0.0596 0.9966 -0.0575
vn -0.0102 0.9942 -0.1068
vn 0.0451 0.9980 0.0454
vn -0.1795 0.9815 0.0664
vn 0.1089 0.9912 0.0747
vn 0.0749 0.9963 -0.0421
vn -0.1476 0.9577 -0.2471
vn -0.1290 0.9787 -0.1598
vn 0.0567 0.9905 0.1250
vn -0.1767 0.9719 0.1553
vn 0.0630 0.9884 -0.1382
vn -0.1511 0.9808 -0.1235
vn 0.0636 0.9961 -0.0610
vn 0.0008 0.9964 -0.0844
vn -0.1485 0.9888 -0.0161
vn 0.0425 0.9971 0.0638
vn 0.0716 0.9974 -0.0116
vn -0.1819 0.9827 -0.0343
vn -0.1161 0.9882 0.1001
vn -0.0266 0.9996 -0.0013
vn -0.0003 0.9932 -0.1168
vn 0.0497 0.9918 -0.1176
vn -0.0252 0.9990 -0.0358
vn 0.0891 0.9955 0.0313
vn -0.1491 0.9876 -0.0491
vn 0.0179 0.9986 -0.0498
vn -0.1845 0.9816 -0.0482
vn 0.0118 0.9990 0.0437
vn 0.0516 0.9982 -0.0319
vn -0.0197 0.9989 -0.0434
vn 0.0941 0.9920 -0.0836
vn 0.0505 0.9948 -0.0881
vn 0.0259 0.9969 0.0746
vn -0.1641 0.9843 0.0649
vn -0.1008 0.9934 -0.0539
vn 0.0143 0.9982 -0.0583
vn 0.0611 0.9976 0.0335
vn 0.0007 0.9977 0.0678
vn -0.0051 0.9990 0.0453
vn 0.1110 0.9936 0.0191
vn -0.0009 0.9968 -0.0802
vn -0.2144 0.9654 -0.1487
vn -0.0618 0.9979 -0.0201
vn 0.0019 0.9999 0.0101
vn 0.0428 0.9934 -0.1064
vn 0.0339 0.9866 -0.1593
vn -0.0310 0.9925 -0.1186
vn 0.0854 0.9709 -0.2237
vn -0.1166 0.9608 -0.2516
vn -0.0645 0.9940 -0.0887
vn -0.0147 0.9998 -0.0133
vn 0.0166 0.9997 0.0176
vn -0.0440 0.9990 0.0078
vn 0.0291 0.9988 -0.0388
vn 0.0011 0.9991 -0.0422
vn -0.0184 0.9996 -0.0211
vn -0.0142 0.9997 -0.0177
vn -0.0075 0.9998 -0.0173
vn 0.0042 0.9999 -0.0161
vn 0.0118 0.9994 -0.0330
usemtl None
s off
f 1//1 23//1 30//1 2//1
f 2//2 30//2 31//2 3//2
f 3//3 31//3 32//3 4//3
f 4//4 32//4 33//4 5//4
f 5//5 33//5 34//5 6//5
f 6//6 34//6 35//6 7//6
f 7//7 35//7 36//7 8//7
f 8//8 36//8 247//8 248//8
f 23//9 24//9 37//9 30//9
f 30//10 37//10 38//10 31//10
f 31//11 38//11 39//11 32//11
f 32//12 39//12 40//12 33//12
f 33//13 40//13 41//13 34//13
f 34//14 41//14 42//14 35//14
f 35//15 42//15 43//15 36//15
f 36//16 43//16 246//16 247//16
f 24//17 25//17 44//17 37//17
f 37//18 44//18 45//18 38//18
f 38//19 45//19 46//19 39//19
f 39//20 46//20 47//20 40//20
f 40//21 47//21 48//21 41//21
f 41//22 48//22 49//22 42//22
f 42//23 49//23 50//23 43//23
f 43//24 50//24 245//24 246//24
f 25//25 26//25 51//25 44//25
f 44//26 51//26 52//26 45//26
f 45//27 52//27 53//27 46//27
f 46//28 53//28 54//28 47//28
f 47//29 54//29 55//29 48//29
f 48//30 55//30 56//30 49//30
f 49//31 56//31 57//31 50//31
f 50//32 57//32 244//32 245//32
f 26//33 27//33 58//33 51//33
f 51//34 58//34 59//34 52//34
f 52//35 59//35 60//35 53//35
f 53//36 60//36 61//36 54//36
f 54//37 61//37 62//37 55//37
f 55//38 62//38 63//38 56//38
f 56//39 63//39 64//39 57//39
f 57//40 64//40 243//40 244//40
f 27//41 28//41 65//41 58//41
f 58//42 65//42 66//42 59//42
f 59//43 66//43 67//43 60//43
f 60//44 67//44 68//44 61//44
f 61//45 68//45 69//45 62//45
f 62//46 69//46 70//46 63//46
f 63//47 70//47 71//47 64//47
f 64//48 71//48 242//48 243//48
f 28//49 29//49 72//49 65//49
f 65//50 72//50 73//50 66//50
f 66//51 73//51 74//51 67//51
f 67//52 74//52 75//52 68//52
f 68//53 75//53 76//53 69//53
f 69//54 76//54 77//54 70//54
f 70//55 77//55 78//55 71//55
f 71//56 78//56 241//56 242//56
f 29//57 233//57 234//57 72//57
f 72//58 234//58 235//58 73//58
f 73//59 235//59 236//59 74//59
f 74//60 236//60 237//60 75//60
f 75//61 237//61 238//61 76//61
f 76//62 238//62 239//62 77//62
f 77//63 239//63 240//63 78//63
f 78//64 240//64 286//64 241//64
f 1//65 2//65 79//65 9//65
f 9//66 79//66 80//66 10//66
f 10//67 80//67 81//67 11//67
f 11//68 81//68 82//68 12//68
f 12//69 82//69 83//69 13//69
f 13//70 83//70 84//70 14//70
f 14//71 84//71 85//71 15//71
f 15//72 85//72 262//72 263//72
f 2//73 3//73 86//73 79//73
f 79//74 86//74 87//74 80//74
f 80//75 87//75 88//75 81//75
f 81//76 88//76 89//76 82//76
f 82//77 89//77 90//77 83//77
f 83//78 90//78 91//78 84//78
f 84//79 91//79 92//79 85//79
f 85//80 92//80 261//80 262//80
f 3//81 4//81 93//81 86//81
f 86//82 93//82 94//82 87//82
f 87//83 94//83 95//83 88//83
f 88//84 95//84 96//84 89//84
f 89//85 96//85 97//85 90//85
f 90//86 97//86 98//86 91//86
f 91//87 98//87 99//87 92//87
f 92//88 99//88 260//88 261//88
f 4//89 5//89 100//89 93//89
f 93//90 100//90 101//90 94//90
f 94//91 101//91 102//91 95//91
f 95//92 102//92 103//92 96//92
f 96//93 103//93 104//93 97//93
f 97//94 104//94 105//94 98//94
f 98//95 105//95 106//95 99//95
f 99//96 106//96 259//96 260//96
f 5//97 6//97 107//97 100//97
f 100//98 107//98 108//98 101//98
f 101//99 108//99 109//99 102//99
f 102//100 109//100 110//100 103//100
f 103//101 110//101 111//101 104//101
f 104//102 111//102 112//102 105//102
f 105//103 112//103 113//103 106//103
f 106//104 113//104 258//104 259//104
f 6//105 7//105 114//105 107//105
f 107//106 114//106 115//106 108//106
f 108//107 115//107 116//107 109//107
f 109//108 116//108 117//108 110//108
f 110//109 117//109 118//109 111//109
f 111//110 118//110 119//110 112//110
f 112//111 119//111 120//111 113//111
f 113//112 120//112 257//112 258//112
f 7//113 8//113 121//113 114//113
f 114//114 121//114 122//114 115//114
f 115//115 122//115 123//115 116//115
f 116//116 123//116 124//116 117//116
f 117//117 124//117 125//117 118//117
f 118//118 125//118 126//118 119//118
f 119//119 126//119 127//119 120//119
f 120//120 127//120 256//120 257//120
f 8//121 248//121 249//121 121//121
f 121//122 249//122 250//122 122//122
f 122//123 250//123 251//123 123//123
f 123//124 251//124 252//124 124//124
f 124//125 252//125 253//125 125//125
f 125//126 253//126 254//126 126//126
f 126//127 254//127 255//127 127//127
f 127//128 255//128 287//128 256//128
f 1//129 9//129 128//129 16//129
f 16//130 128//130 129//130 17//130
f 17//131 129//131 130//131 18//131
f 18//132 130//132 131//132 19//132
f 19//133 131//133 132//133 20//133
f 20//134 132//134 133//134 21//134
f 21//135 133//135 134//135 22//135
f 22//136 134//136 277//136 278//136
f 9//137 10//137 135//137 128//137
f 128//138 135//138 136//138 129//138
f 129//139 136//139 137//139 130//139
f 130//140 137//140 138//140 131//140
f 131//141 138//141 139//141 132//141
f 132//142 139//142 140//142 133//142
f 133//143 140//143 141//143 134//143
f 134//144 141//144 276//144 277//144
f 10//145 11//145 142//145 135//145
f 135//146 142//146 143//146 136//146
f 136//147 143//147 144//147 137//147
f 137//148 144//148 145//148 138//148
f 138//149 145//149 146//149 139//149
f 139//150 146//150 147//150 140//150
f 140//151 147//151 148//151 141//151
f 141//152 148//152 275//152 276//152
f 11//153 12//153 149//153 142//153
f 142//154 149//154 150//154 143//154
f 143//155 150//155 151//155 144//155
f 144//156 151//156 152//156 145//156
f 145//157 152//157 153//157 146//157
f 146//158 153//158 154//158 147//158
f 147//159 154//159 155//159 148//159
f 148//160 155//160 274//160 275//160
f 12//161 13//161 156//161 149//161
f 149//162 156//162 157//162 150//162
f 150//163 157//163 158//163 151//163
f 151//164 158//164 159//164 152//164
f 152//165 159//165 160//165 153//165
f 153//166 160//166 161//166 154//166
f 154//167 161//167 162//167 155//167
f 155//168 162//168 273//168 274//168
f 13//169 14//169 163//169 156//169
f 156//170 163//170 164//170 157//170
f 157//171 164//171 165//171 158//171
f 158//172 165//172 166//172 159//172
f 159//173 166//173 167//173 160//173
f 160//174 167//174 168//174 161//174
f 161//175 168//175 169//175 162//175
f 162//176 169//176 272//176 273//176
f 14//177 15//177 170//177 163//177
f 163//178 170//178 171//178 164//178
f 164//179 171//179 172//179 165//179
f 165//180 172//180 173//180 166//180
f 166//181 173//181 174//181 167//181
f 167//182 174//182 175//182 168//182
f 168//183 175//183 176//183 169//183
f 169//184 176//184 271//184 272//184
f 15//185 263//185 264//185 170//185
f 170//186 264//186 265//186 171//186
f 171//187 265//187 266//187 172//187
f 172//188 266//188 267//188 173//188
f 173//189 267//189 268//189 174//189
f 174//190 268//190 269//190 175//190
f 175//191 269//191 270//191 176//191
f 176//192 270//192 289//192 271//192
f 1//193 16//193 177//193 23//193
f 23//194 177//194 178//194 24//194
f 24//195 178//195 179//195 25//195
f 25//196 179//196 180//196 26//196
f 26//197 180//197 181//197 27//197
f 27//198 181//198 182//198 28//198
f 28//199 182//199 183//199 29//199
f 29//200 183//200 232//200 233//200
f 16//201 17//201 184//201 177//201
f 177//202 184//202 185//202 178//202
f 178//203 185//203 186//203 179//203
f 179//204 186//204 187//204 180//204
f 180//205 187//205 188//205 181//205
f 181//206 188//206 189//206 182//206
f 182//207 189//207 190//207 183//207
f 183//208 190//208 231//208 232//208
f 17//209 18//209 191//209 184//209
f 184//210 191//210 192//210 185//210
f 185//211 192//211 193//211 186//211
f 186//212 193//212 194//212 187//212
f 187//213 194//213 195//213 188//213
f 188//214 195//214 196//214 189//214
f 189//215 196//215 197//215 190//215
f 190//216 197//216 230//216 231//216
f 18//217 19//217 198//217 191//217
f 191//218 198//218 199//218 192//218
f 192//219 199//219 200//219 193//219
f 193//220 200//220 201//220 194//220
f 194//221 201//221 202//221 195//221
f 195//222 202//222 203//222 196//222
f 196//223 203//223 204//223 197//223
f 197//224 204//224 229//224 230//224
f 19//225 20//225 205//225 198//225
f 198//226 205//226 206//226 199//226
f 199//227 206//227 207//227 200//227
f 200//228 207//228 208//228 201//228
f 201//229 208//229 209//229 202//229
f 202//230 209//230 210//230 203//230
f 203//231 210//231 211//231 204//231
f 204//232 211//232 228//232 229//232
f 20//233 21//233 212//233 205//233
f 205//234 212//234 213//234 206//234
f 206//235 213//235 214//235 207//235
f 207//236 214//236 215//236 208//236
f 208//237 215//237 216//237 209//237
f 209//238 216//238 217//238 210//238
f 210//239 217//239 218//239 211//239
f 211//240 218//240 227//240 228//240
f 21//241 22//241 219//241 212//241
f 212//242 219//242 220//242 213//242
f 213//243 220//243 221//243 214//243
f 214//244 221//244 222//244 215//244
f 215//245 222//245 223//245 216//245
f 216//246 223//246 224//246 217//246
f 217//247 224//247 225//247 218//247
f 218//248 225//248 226//248 227//248
f 22//249 278//249 279//249 219//249
f 219//250 279//250 280//250 220//250
f 220//251 280//251 281//251 221//251
f 221//252 281//252 282//252 222//252
f 222//253 282//253 283//253 223//253
f 223//254 283//254 284//254 224//254
f 224//255 284//255 285//255 225//255
f 225//256 285//256 288//256 226//256
