# Blender v2.79 (sub 0) OBJ File: 'ceil1.blend'
# www.blender.org
mtllib ceil1.mtl
o Plane_Plane.001
v -99.998825 -0.005391 99.997955
v 100.000000 0.000000 100.000000
v -100.001434 0.042184 -100.008980
v 100.000000 0.000000 -100.000000
v -100.000000 0.000406 0.000000
v 0.000000 0.000000 100.000000
v 100.000000 0.000000 0.000000
v -0.003736 0.110394 -100.023483
v -1.778319 6.810823 -12.710452
v -99.998909 -0.004991 49.998108
v 50.000061 0.000111 100.000000
v 100.000000 0.000000 -50.000000
v -50.132622 3.918411 -100.833389
v -100.000511 0.015212 -50.003235
v -49.737621 -1.202884 99.543831
v 100.524857 1.029267 50.037090
v 50.000000 0.000000 -100.000000
v -0.171536 5.070870 -51.078529
v 0.007494 0.177189 50.005920
v -45.433189 2.908684 -0.998006
v 50.001789 0.003501 0.000126
v 52.321632 4.601748 50.175240
v -50.002987 2.769587 49.999763
v -50.276886 8.187619 -51.739979
v 50.528969 2.467808 -50.016445
v -99.266258 -3.363858 73.724335
v 75.009232 0.021503 100.010468
v 100.000000 0.000000 -75.000000
v -75.037697 1.113736 -100.236877
v -100.000000 0.000000 -25.000000
v -25.000000 0.000000 100.000000
v 100.422760 0.829066 25.029877
v 25.000000 0.000000 -100.000000
v -0.061828 1.826782 -75.388527
v 0.000000 1.982567 25.000000
v -75.617172 2.768835 -0.058279
v 25.000000 0.001970 0.000000
v -100.000000 0.025487 25.000000
v 25.000000 0.000000 100.000000
v 100.000000 0.000000 -25.000000
v -25.067585 1.709046 -100.356255
v -100.010574 0.312330 -75.066429
v -74.112114 -4.070526 98.456345
v 100.000000 0.000000 75.000000
v 75.026543 0.204367 -100.071182
v -0.030857 0.928165 -25.193905
v 0.000000 0.000000 75.000000
v -21.500544 6.553448 -8.198764
v 75.018242 0.035776 0.001289
v 42.404007 5.066379 24.878706
v 46.570732 3.998240 75.409111
v 23.478859 4.303589 50.774975
v 79.013542 7.870806 50.283623
v -51.235001 3.568995 24.874763
v -48.989151 -4.634244 73.242569
v -74.768196 -1.034403 49.596996
v -24.880856 11.130438 50.030891
v -50.216740 1.450787 -75.184120
v -50.000000 2.327142 -25.000000
v -75.043373 1.281490 -50.272552
v -25.307373 9.082495 -51.931553
v 51.671196 -0.828451 -73.974586
v 50.469910 2.192293 -25.014606
v 25.000000 0.000000 -50.000000
v 75.059631 0.278174 -50.001854
v 75.039146 0.182628 -25.001217
v 25.000000 0.000000 -25.000000
v 25.000000 0.000000 -75.000000
v -25.178463 2.699243 -25.021627
v -75.086884 2.642982 -25.545956
v -75.221275 6.537974 -76.390526
v -24.999977 0.084872 74.999962
v -74.805573 -0.891370 74.661972
v -75.445877 3.517257 24.957895
v 75.200500 0.464026 75.218903
v 25.204092 1.255570 75.199318
v 25.149006 0.536544 25.117689
v 76.285187 2.520322 25.090820
v -25.000000 10.246212 25.000000
v -26.916672 0.520948 -73.701057
v 75.439415 3.383035 -76.178368
vt 0.875000 0.125000
vt 0.875000 0.000000
vt 1.000000 0.000000
vt 1.000000 0.125000
vt 0.875000 0.625000
vt 0.875000 0.500000
vt 1.000000 0.500000
vt 1.000000 0.625000
vt 0.375000 0.625000
vt 0.375000 0.500000
vt 0.500000 0.500000
vt 0.500000 0.625000
vt 0.375000 0.125000
vt 0.375000 0.000000
vt 0.500000 0.000000
vt 0.500000 0.125000
vt 0.375000 0.375000
vt 0.375000 0.250000
vt 0.500000 0.250000
vt 0.500000 0.375000
vt 0.125000 0.375000
vt 0.125000 0.250000
vt 0.250000 0.250000
vt 0.250000 0.375000
vt 0.125000 0.125000
vt 0.125000 0.000000
vt 0.250000 0.000000
vt 0.250000 0.125000
vt 0.375000 0.875000
vt 0.375000 0.750000
vt 0.500000 0.750000
vt 0.500000 0.875000
vt 0.125000 0.875000
vt 0.125000 0.750000
vt 0.250000 0.750000
vt 0.250000 0.875000
vt 0.125000 0.625000
vt 0.125000 0.500000
vt 0.250000 0.500000
vt 0.250000 0.625000
vt 0.875000 0.875000
vt 0.875000 0.750000
vt 1.000000 0.750000
vt 1.000000 0.875000
vt 0.625000 0.875000
vt 0.625000 0.750000
vt 0.750000 0.750000
vt 0.750000 0.875000
vt 0.625000 0.625000
vt 0.625000 0.500000
vt 0.750000 0.500000
vt 0.750000 0.625000
vt 0.875000 0.375000
vt 0.875000 0.250000
vt 1.000000 0.250000
vt 1.000000 0.375000
vt 0.625000 0.375000
vt 0.625000 0.250000
vt 0.750000 0.250000
vt 0.750000 0.375000
vt 0.625000 0.125000
vt 0.625000 0.000000
vt 0.750000 0.000000
vt 0.750000 0.125000
vt 0.625000 1.000000
vt 0.750000 1.000000
vt 0.500000 1.000000
vt 0.875000 1.000000
vt 1.000000 1.000000
vt 0.000000 0.750000
vt 0.000000 0.625000
vt 0.000000 0.500000
vt 0.125000 1.000000
vt 0.250000 1.000000
vt 0.000000 1.000000
vt 0.000000 0.875000
vt 0.375000 1.000000
vt 0.000000 0.250000
vt 0.000000 0.125000
vt 0.000000 0.000000
vt 0.000000 0.375000
vn 0.0737 0.9951 -0.0653
vn 0.0054 0.9999 -0.0101
vn 0.1781 0.9838 0.0201
vn 0.0350 0.9971 -0.0671
vn -0.1065 0.9863 -0.1263
vn -0.0598 0.9959 0.0684
vn 0.1551 0.9718 0.1778
vn -0.0040 0.9996 -0.0281
vn 0.0018 0.9889 0.1486
vn 0.2111 0.9536 0.2147
vn 0.0463 0.9972 -0.0593
vn -0.1290 0.9878 0.0869
vn 0.1095 0.9749 0.1938
vn 0.0157 0.9998 0.0157
vn -0.0910 0.9958 0.0054
vn 0.0092 1.0000 0.0019
vn 0.0852 0.9963 0.0075
vn 0.0398 0.9981 0.0470
vn 0.0044 1.0000 0.0029
vn 0.1163 0.9900 0.0803
vn 0.1812 0.9728 -0.1443
vn -0.0434 0.9981 0.0432
vn 0.0389 0.9986 -0.0345
vn 0.1376 0.9884 -0.0647
vn -0.0300 0.9972 -0.0678
vn -0.0238 0.9746 0.2226
vn -0.0948 0.9915 -0.0886
vn -0.0009 0.9490 -0.3152
vn -0.0786 0.9965 -0.0270
vn -0.1092 0.9940 -0.0036
vn 0.0031 0.9999 -0.0145
vn -0.1477 0.9823 -0.1152
vn -0.1447 0.9836 0.1073
vn -0.0367 0.9989 -0.0297
vn -0.2530 0.9020 0.3499
vn -0.1174 0.9909 -0.0663
vn 0.0017 1.0000 0.0017
vn -0.0297 0.9974 0.0662
vn 0.0316 0.9995 -0.0036
vn 0.0174 0.9998 -0.0050
vn -0.1269 0.9918 -0.0149
vn -0.0484 0.9945 0.0925
vn -0.0787 0.9909 0.1096
vn 0.0050 0.9873 0.1586
vn 0.0654 0.9942 0.0851
vn 0.0098 0.9999 0.0089
vn -0.1110 0.9915 0.0686
vn -0.0251 0.9994 0.0251
vn -0.0592 0.9922 0.1094
vn 0.1414 0.9879 0.0632
vn -0.0543 0.9977 -0.0404
vn -0.1049 0.9934 -0.0474
vn 0.0427 0.9887 -0.1439
vn -0.0114 0.9956 -0.0935
vn 0.1817 0.9762 -0.1182
vn -0.2146 0.9710 -0.1054
vn -0.2810 0.9597 0.0059
vn 0.3594 0.9330 0.0163
vn 0.0617 0.9955 0.0719
vn 0.0093 0.9471 -0.3208
vn 0.0463 0.9673 -0.2493
vn -0.0920 0.9948 -0.0430
vn -0.0421 0.9991 -0.0051
vn 0.0722 0.9955 0.0609
usemtl None
s off
f 81/1/1 28/2/1 4/3/1 45/4/1
f 80/5/2 34/6/2 8/7/2 41/8/2
f 79/9/3 35/10/3 9/11/3 48/12/3
f 78/13/4 32/14/4 7/15/4 49/16/4
f 77/17/5 50/18/5 21/19/5 37/20/5
f 76/21/6 51/22/6 22/23/6 52/24/6
f 75/25/7 44/26/7 16/27/7 53/28/7
f 74/29/8 54/30/8 20/31/8 36/32/8
f 73/33/9 55/34/9 23/35/9 56/36/9
f 72/37/10 47/38/10 19/39/10 57/40/10
f 71/41/11 58/42/11 13/43/11 29/44/11
f 70/45/12 59/46/12 24/47/12 60/48/12
f 69/49/13 46/50/13 18/51/13 61/52/13
f 68/53/14 62/54/14 17/55/14 33/56/14
f 67/57/15 63/58/15 25/59/15 64/60/15
f 66/61/16 40/62/16 12/63/16 65/64/16
f 63/58/17 66/61/17 65/64/17 25/59/17
f 21/19/18 49/16/18 66/61/18 63/58/18
f 49/16/19 7/15/19 40/62/19 66/61/19
f 46/50/20 67/57/20 64/60/20 18/51/20
f 9/11/21 37/20/21 67/57/21 46/50/21
f 37/20/22 21/19/22 63/58/22 67/57/22
f 34/6/23 68/53/23 33/56/23 8/7/23
f 18/51/24 64/60/24 68/53/24 34/6/24
f 64/60/25 25/59/25 62/54/25 68/53/25
f 59/46/26 69/49/26 61/52/26 24/47/26
f 20/31/27 48/12/27 69/49/27 59/46/27
f 48/12/28 9/11/28 46/50/28 69/49/28
f 30/65/29 70/45/29 60/48/29 14/66/29
f 5/67/30 36/32/30 70/45/30 30/65/30
f 36/32/31 20/31/31 59/46/31 70/45/31
f 42/68/32 71/41/32 29/44/32 3/69/32
f 14/66/33 60/48/33 71/41/33 42/68/33
f 60/48/34 24/47/34 58/42/34 71/41/34
f 55/34/35 72/37/35 57/40/35 23/35/35
f 15/70/36 31/71/36 72/37/36 55/34/36
f 31/71/37 6/72/37 47/38/37 72/37/37
f 26/73/38 73/33/38 56/36/38 10/74/38
f 1/75/39 43/76/39 73/33/39 26/73/39
f 43/76/40 15/70/40 55/34/40 73/33/40
f 38/77/41 74/29/41 36/32/41 5/67/41
f 10/74/42 56/36/42 74/29/42 38/77/42
f 56/36/43 23/35/43 54/30/43 74/29/43
f 51/22/44 75/25/44 53/28/44 22/23/44
f 11/78/45 27/79/45 75/25/45 51/22/45
f 27/79/46 2/80/46 44/26/46 75/25/46
f 47/38/47 76/21/47 52/24/47 19/39/47
f 6/72/48 39/81/48 76/21/48 47/38/48
f 39/81/49 11/78/49 51/22/49 76/21/49
f 35/10/50 77/17/50 37/20/50 9/11/50
f 19/39/51 52/24/51 77/17/51 35/10/51
f 52/24/52 22/23/52 50/18/52 77/17/52
f 50/18/53 78/13/53 49/16/53 21/19/53
f 22/23/54 53/28/54 78/13/54 50/18/54
f 53/28/55 16/27/55 32/14/55 78/13/55
f 54/30/56 79/9/56 48/12/56 20/31/56
f 23/35/57 57/40/57 79/9/57 54/30/57
f 57/40/58 19/39/58 35/10/58 79/9/58
f 58/42/59 80/5/59 41/8/59 13/43/59
f 24/47/60 61/52/60 80/5/60 58/42/60
f 61/52/61 18/51/61 34/6/61 80/5/61
f 62/54/62 81/1/62 45/4/62 17/55/62
f 25/59/63 65/64/63 81/1/63 62/54/63
f 65/64/64 12/63/64 28/2/64 81/1/64
