# Blender v2.79 (sub 0) OBJ File: 'floor1.blend'
# www.blender.org
mtllib floor1.mtl
o Plane
v 0.142229 1.339653 0.071403
v 0.223825 2.329580 12.631869
v 0.112591 1.647633 25.230244
v 0.206863 2.054029 37.897526
v 0.025696 1.052028 50.020737
v -0.010225 0.966047 62.749817
v 0.388031 1.424390 75.546707
v 0.260159 1.216456 87.791046
v 12.606075 0.923917 0.043352
v 25.088490 1.287166 -0.059832
v 37.617130 2.081643 -0.148624
v 50.086029 0.757622 -0.054607
v 63.193691 0.867907 -0.113407
v 75.005455 0.034830 -0.002609
v 87.500000 0.000000 0.000000
v 0.159754 1.575155 -12.466365
v -0.034781 1.673368 -25.340572
v -0.293054 2.516140 -38.425159
v 0.054506 1.164641 -50.101616
v 0.025935 0.784816 -62.568027
v -0.068414 0.507259 -75.131065
v -0.005683 0.063233 -87.513557
v -12.363788 1.455012 0.078947
v -24.964949 1.019710 0.045149
v -37.422760 1.231576 0.045511
v -49.908638 1.271202 0.053831
v -62.536655 0.292830 0.026148
v -75.000122 0.045446 0.000096
v -87.500000 0.002244 0.000000
v -12.303590 2.249630 12.615726
v -12.141248 3.394760 25.211382
v -12.506207 1.382716 37.555668
v -12.496732 1.208618 50.001926
v -12.525305 1.089755 62.617229
v -12.491044 0.646246 75.087395
v -12.447403 0.366360 87.558838
v -24.874851 1.421794 12.573740
v -24.893143 1.107171 25.065300
v -24.912556 1.517401 37.551521
v -25.000000 1.442553 50.000000
v -25.000000 1.973414 62.500000
v -25.000021 1.037053 75.000023
v -24.999941 0.255765 87.500069
v -37.459835 1.112786 12.524623
v -38.653988 2.048131 25.676260
v -38.991123 2.531199 38.373245
v -37.500000 1.393702 50.000000
v -37.500000 2.980370 62.500000
v -37.500000 1.543445 75.000000
v -37.503479 0.388308 87.501976
v -49.992699 1.051478 12.517345
v -50.001186 1.135033 25.002476
v -52.168812 3.277654 38.733746
v -50.658512 1.503246 50.374352
v -50.034134 0.926406 62.519402
v -50.041931 0.726779 75.023827
v -50.000000 0.054787 87.500000
v -62.833839 1.141373 12.694569
v -62.500000 1.326968 25.000000
v -63.156326 1.543213 37.873013
v -62.798725 0.654913 50.169777
v -62.514423 0.121924 62.508194
v -62.500000 0.136885 75.000000
v -62.500000 0.012923 87.500000
v -75.003944 0.247478 12.502259
v -75.218018 0.831437 25.123905
v -75.104568 0.551657 37.559433
v -75.001579 0.204960 50.000900
v -75.000000 0.030888 62.500000
v -75.000000 0.002268 75.000000
v -75.000000 0.000000 87.500000
v -87.500000 0.031189 12.500000
v -87.500114 0.066537 25.000063
v -87.500000 0.082590 37.500000
v -87.500000 0.018350 50.000000
v -87.500000 0.000000 62.500000
v -87.500000 0.000000 75.000000
v -87.500000 0.000000 87.500000
v 12.577226 0.704606 12.530025
v 25.106382 1.147872 12.501478
v 37.615311 1.029496 12.452005
v 50.299908 0.584939 12.451814
v 62.575920 0.131573 12.500649
v 75.011986 0.026224 12.503905
v 87.500015 0.000070 12.500016
v 12.587939 1.128086 25.051519
v 25.230101 1.050805 25.226858
v 38.269894 1.139280 25.020351
v 51.009823 1.268731 24.942896
v 62.560852 0.123063 25.016535
v 75.041161 0.114530 25.021448
v 87.500290 0.001352 25.000322
v 12.540897 0.983321 37.523899
v 25.336153 1.576538 37.874287
v 38.503159 1.882866 37.601349
v 50.754238 1.286943 37.572647
v 62.967129 0.639661 37.526627
v 75.045563 0.173978 37.539234
v 87.501755 0.008062 37.501957
v 12.592842 0.777385 50.148796
v 25.263769 1.252601 50.295055
v 37.785458 1.314194 50.319344
v 50.277901 1.279389 50.310898
v 62.622631 0.555139 50.134148
v 75.444588 0.446979 50.028599
v 87.506493 0.029894 50.007267
v 12.562418 0.490487 62.574757
v 25.178566 0.847456 62.700962
v 37.810753 1.430982 62.847649
v 50.497574 2.290713 63.056652
v 62.776924 1.274125 62.810062
v 75.489395 0.652286 62.578438
v 87.512726 0.058578 62.514233
v 12.605579 0.528725 75.122276
v 25.082079 0.380541 75.091820
v 37.794693 1.356691 75.329681
v 50.470852 2.167696 75.526764
v 62.950825 1.224368 75.783882
v 75.869888 0.616353 74.980286
v 87.512718 0.058565 75.014236
v 12.834756 1.541131 87.874504
v 25.110853 0.510337 87.624016
v 37.610344 0.507997 87.623444
v 50.157547 0.722342 87.677231
v 62.602638 0.472515 87.614822
v 75.015388 0.070854 87.517220
v 87.503181 0.014666 87.503563
v 12.676557 1.604753 -12.442355
v 12.605794 1.084277 -24.988001
v 12.533606 1.273104 -37.652042
v 12.569057 0.934848 -50.033890
v 12.542932 0.704620 -62.543613
v 12.524051 0.430004 -75.030785
v 12.506739 0.119768 -87.508553
v 25.073927 1.277582 -12.587137
v 25.155676 1.615663 -24.984951
v 25.045893 0.531457 -37.506031
v 25.027100 0.399661 -50.019310
v 25.028404 0.489503 -62.533230
v 25.019613 0.348570 -75.024887
v 25.009880 0.175564 -87.512535
v 37.637310 2.440323 -12.674232
v 37.582703 1.469842 -25.104942
v 37.561886 1.096127 -37.577839
v 37.539303 0.686457 -50.047653
v 37.512619 0.224256 -62.516010
v 37.509052 0.160896 -75.011482
v 37.508213 0.145998 -87.510422
v 50.061100 1.085411 -12.577431
v 50.071407 1.269030 -25.090605
v 50.071381 1.268653 -37.590580
v 50.070351 1.250292 -50.089272
v 50.036655 0.651471 -62.546516
v 50.016712 0.297036 -75.021210
v 50.008518 0.151364 -87.510803
v 62.775421 0.611701 -12.563005
v 62.538559 0.678702 -25.048485
v 62.543060 0.765203 -37.554634
v 62.560417 1.073746 -50.076664
v 62.547630 0.846452 -62.560432
v 62.522125 0.393246 -75.028076
v 62.505054 0.089833 -87.506416
v 75.030853 0.261701 -12.519978
v 75.014511 0.255538 -25.018253
v 75.016113 0.286423 -37.520451
v 75.018883 0.335567 -50.023960
v 75.016457 0.292445 -62.520878
v 75.007591 0.134951 -75.009636
v 75.001015 0.018023 -87.501289
v 87.500198 0.003482 -12.500249
v 87.502403 0.042676 -25.003046
v 87.503906 0.069506 -37.504963
v 87.503403 0.060488 -50.004322
v 87.501434 0.025401 -62.501812
v 87.500290 0.005216 -75.000366
v 87.500008 0.000117 -87.500008
v -12.564845 0.623953 -12.519531
v -25.167660 0.903717 -12.523614
v -37.462765 0.851119 -12.461967
v -49.958923 0.817196 -12.478026
v -62.592285 0.459564 -12.623162
v -75.001457 0.010141 -12.501422
v -87.500000 0.000000 -12.500000
v -12.551058 0.953092 -25.144201
v -25.021414 0.891257 -25.058445
v -37.534409 1.688847 -25.070477
v -50.012177 1.369296 -25.044817
v -62.608505 0.834726 -25.113562
v -75.072472 0.383538 -25.085428
v -87.502708 0.017403 -25.002575
v -12.412420 0.947686 -37.499115
v -25.003151 1.091934 -37.534653
v -37.470619 1.504007 -37.515656
v -50.115932 0.995985 -37.617489
v -62.783737 1.826264 -37.770233
v -75.230614 1.027523 -37.801826
v -87.510040 0.050715 -37.512051
v -12.817528 1.719008 -50.516354
v -25.048410 0.861301 -50.071587
v -38.033859 2.212662 -50.761677
v -50.906307 3.509598 -51.287727
v -62.941677 1.937095 -50.583965
v -75.453964 1.855581 -50.621979
v -87.530693 0.122771 -50.042522
v -12.852786 1.411937 -63.032635
v -25.296379 1.201947 -62.913280
v -37.734978 1.143080 -62.804352
v -50.765682 2.974302 -63.577507
v -63.778843 4.819774 -64.324554
v -75.218376 0.817471 -62.812550
v -87.525055 0.093614 -62.535892
v -12.691230 0.721108 -75.278236
v -25.207325 0.775511 -75.296837
v -37.795879 1.201661 -75.406754
v -50.331127 1.453707 -75.435844
v -63.005058 1.974413 -75.707970
v -75.162193 0.610963 -75.231461
v -87.505211 0.019205 -75.007507
v -12.590343 0.332668 -87.630440
v -25.193104 0.710009 -87.778664
v -37.706177 0.763463 -87.796570
v -50.111240 0.423760 -87.657913
v -62.576706 0.301110 -87.607307
v -75.040504 0.150072 -87.558250
v -87.504417 0.016230 -87.506371
v -100.000092 0.000333 -87.500130
v -100.000954 0.003494 -75.001373
v -100.002251 0.008266 -62.503242
v -100.000443 0.001629 -50.000637
v -100.000000 0.000000 -37.500000
v -100.000000 0.000000 -25.000000
v -100.000000 0.000000 -12.500000
v -100.000000 0.000006 0.000000
v -100.000000 0.001224 12.500000
v -100.000000 0.004760 25.000000
v -100.000000 0.001048 37.500000
v -100.000000 0.000000 50.000000
v -100.000000 0.000000 62.500000
v -100.000000 0.000000 75.000000
v -100.000000 0.001159 87.500000
v -87.500000 0.000325 100.000000
v -75.000000 0.000000 100.000000
v -62.500000 0.000000 100.000000
v -50.000000 0.018071 100.000000
v -37.500000 0.041119 100.000000
v -25.000000 0.006320 100.000000
v -12.498083 0.008826 100.002144
v 0.082866 0.381493 100.092712
v 12.742395 1.115928 100.271179
v 25.230202 1.059785 100.257530
v 37.546791 0.215419 100.052345
v 50.024784 0.114087 100.027725
v 62.516159 0.074398 100.018082
v 75.000435 0.002013 100.000488
v 87.500000 0.000000 100.000000
v 100.000015 0.000038 87.500015
v 100.000526 0.002422 75.000587
v 100.000214 0.000965 62.500233
v 100.000000 0.000000 50.000000
v 100.000000 0.000000 37.500000
v 100.000000 0.000000 25.000000
v 100.000000 0.000007 12.499999
v 100.000000 0.000000 0.000000
v 100.000000 0.000000 -12.500000
v 100.000015 0.000138 -25.000010
v 100.000153 0.002845 -37.500202
v 100.000191 0.003423 -50.000244
v 100.000038 0.000700 -62.500046
v 100.000000 0.000010 -75.000000
v 100.000000 0.000000 -87.500000
v 87.500000 0.000000 -100.000000
v 75.000008 0.000076 -100.000000
v 62.500267 0.004774 -100.000343
v 50.000977 0.017326 -100.001236
v 37.501354 0.024110 -100.001717
v 25.001198 0.021283 -100.001511
v 12.500591 0.010519 -100.000748
v -0.000082 0.001138 -100.000229
v -12.514745 0.054214 -100.021278
v -25.062693 0.230507 -100.090469
v -37.606174 0.390376 -100.153221
v -50.040363 0.148419 -100.058258
v -62.507862 0.028907 -100.011353
v -75.002960 0.010890 -100.004280
v -87.500465 0.001706 -100.000671
v -100.000000 0.000000 100.000000
v 100.000000 0.000000 100.000000
v -100.000000 0.000000 -100.000000
v 100.000000 0.000000 -100.000000
vn 0.0014 0.9975 -0.0709
vn 0.0671 0.9976 -0.0185
vn 0.0420 0.9970 0.0645
vn -0.0211 0.9986 0.0477
vn 0.0111 0.9999 0.0081
vn -0.0258 0.9997 -0.0001
vn -0.0640 0.9978 0.0195
vn -0.0488 0.9977 0.0476
vn -0.0499 0.9976 -0.0473
vn -0.1218 0.9920 -0.0321
vn -0.0855 0.9944 0.0628
vn 0.0148 0.9998 0.0100
vn 0.0448 0.9989 -0.0163
vn 0.0504 0.9972 0.0550
vn 0.0109 0.9990 0.0424
vn -0.0046 0.9997 0.0243
vn -0.0039 0.9999 -0.0113
vn 0.0235 0.9995 -0.0231
vn 0.0682 0.9971 -0.0344
vn 0.0377 0.9981 0.0481
vn 0.0382 0.9957 -0.0843
vn 0.0602 0.9937 0.0943
vn 0.0255 0.9967 0.0772
vn 0.0067 0.9997 0.0239
vn -0.0009 0.9999 0.0136
vn -0.0396 0.9984 -0.0415
vn -0.0055 0.9950 -0.0994
vn 0.0356 0.9922 0.1196
vn -0.0760 0.9963 -0.0389
vn -0.1134 0.9914 0.0649
vn -0.0457 0.9963 0.0729
vn -0.0143 0.9998 0.0154
vn -0.0350 0.9991 -0.0255
vn 0.0110 0.9999 -0.0110
vn -0.0618 0.9936 -0.0947
vn -0.1156 0.9862 0.1187
vn -0.0673 0.9966 0.0477
vn -0.0558 0.9984 0.0074
vn -0.0253 0.9992 0.0319
vn -0.0024 1.0000 0.0020
vn -0.0459 0.9981 -0.0422
vn -0.0556 0.9980 -0.0305
vn -0.0602 0.9982 0.0012
vn -0.0605 0.9969 0.0509
vn -0.0221 0.9993 0.0287
vn -0.0090 1.0000 0.0006
vn -0.0059 1.0000 0.0050
vn -0.0005 1.0000 0.0005
vn -0.0104 0.9999 -0.0092
vn -0.0394 0.9989 -0.0250
vn -0.0500 0.9987 0.0108
vn -0.0264 0.9995 0.0166
vn -0.0087 0.9999 0.0077
vn -0.0013 1.0000 0.0011
vn -0.0001 1.0000 0.0001
vn 0.0000 1.0000 -0.0000
vn -0.0013 1.0000 -0.0012
vn -0.0037 1.0000 -0.0016
vn -0.0057 1.0000 -0.0005
vn -0.0040 1.0000 0.0026
vn -0.0007 1.0000 0.0007
vn 0.0818 0.9962 -0.0308
vn -0.0322 0.9994 0.0143
vn -0.0267 0.9985 0.0473
vn 0.0699 0.9964 0.0480
vn 0.0135 0.9992 0.0364
vn 0.0385 0.9988 0.0306
vn 0.0024 1.0000 0.0003
vn 0.0862 0.9962 0.0106
vn -0.0145 0.9998 -0.0128
vn 0.0012 1.0000 -0.0005
vn 0.0123 0.9994 -0.0323
vn 0.0671 0.9973 -0.0288
vn 0.0046 1.0000 -0.0032
vn 0.0056 1.0000 -0.0036
vn 0.0001 1.0000 -0.0001
vn 0.0637 0.9979 -0.0105
vn -0.0200 0.9997 -0.0151
vn -0.0160 0.9986 -0.0500
vn 0.0185 0.9994 -0.0302
vn 0.0752 0.9969 -0.0217
vn 0.0193 0.9995 -0.0233
vn 0.0112 0.9999 -0.0026
vn 0.0004 1.0000 -0.0003
vn 0.0544 0.9973 0.0490
vn -0.0423 0.9989 0.0211
vn -0.0140 0.9993 0.0350
vn 0.0255 0.9994 0.0238
vn 0.0558 0.9984 0.0054
vn 0.0230 0.9997 -0.0076
vn 0.0237 0.9996 -0.0122
vn 0.0015 1.0000 -0.0009
vn 0.0299 0.9994 0.0149
vn -0.0332 0.9991 0.0277
vn -0.0257 0.9996 0.0115
vn -0.0324 0.9985 -0.0443
vn 0.0692 0.9952 -0.0688
vn 0.0281 0.9989 -0.0368
vn 0.0419 0.9991 -0.0094
vn 0.0035 1.0000 -0.0012
vn 0.0547 0.9983 -0.0205
vn -0.0084 0.9998 0.0172
vn -0.0617 0.9979 0.0214
vn -0.0659 0.9978 0.0078
vn 0.0789 0.9969 0.0063
vn 0.0480 0.9988 0.0023
vn 0.0486 0.9988 0.0007
vn 0.0046 1.0000 -0.0001
vn 0.0226 0.9992 -0.0322
vn 0.0470 0.9979 -0.0456
vn -0.0388 0.9988 0.0287
vn -0.0414 0.9949 0.0925
vn 0.0469 0.9946 0.0924
vn 0.0417 0.9976 0.0552
vn 0.0254 0.9994 0.0244
vn 0.0028 1.0000 0.0019
vn -0.0424 0.9978 0.0504
vn 0.0438 0.9990 -0.0050
vn 0.0340 0.9994 -0.0103
vn -0.0046 0.9993 0.0363
vn 0.0117 0.9991 0.0407
vn 0.0191 0.9996 0.0188
vn 0.0023 1.0000 0.0033
vn 0.0006 1.0000 0.0006
vn 0.0155 0.9992 0.0366
vn 0.0225 0.9996 -0.0168
vn 0.0700 0.9968 0.0390
vn 0.0602 0.9958 -0.0690
vn 0.0125 0.9996 -0.0244
vn 0.0064 0.9997 -0.0221
vn 0.0010 0.9995 -0.0303
vn -0.0026 1.0000 -0.0069
vn -0.0012 0.9996 0.0268
vn -0.0082 0.9999 -0.0073
vn 0.0086 0.9993 -0.0356
vn 0.0512 0.9985 -0.0188
vn 0.0301 0.9995 -0.0056
vn 0.0119 0.9998 -0.0166
vn 0.0010 0.9998 -0.0194
vn -0.0027 0.9999 -0.0105
vn -0.0777 0.9969 0.0139
vn -0.0409 0.9988 -0.0255
vn -0.0172 0.9982 -0.0581
vn -0.0341 0.9992 -0.0216
vn -0.0009 0.9999 -0.0149
vn 0.0181 0.9998 -0.0082
vn 0.0087 0.9999 -0.0075
vn 0.0011 0.9999 -0.0111
vn 0.1068 0.9939 0.0272
vn 0.0624 0.9975 -0.0316
vn 0.0011 0.9999 -0.0150
vn -0.0294 0.9994 -0.0171
vn -0.0396 0.9983 -0.0424
vn -0.0225 0.9996 -0.0167
vn -0.0057 1.0000 -0.0064
vn 0.0001 0.9999 -0.0102
vn 0.0141 0.9999 0.0026
vn 0.0422 0.9991 0.0096
vn 0.0438 0.9990 0.0034
vn 0.0272 0.9996 0.0116
vn -0.0007 0.9995 -0.0331
vn -0.0117 0.9994 -0.0323
vn -0.0014 0.9998 -0.0180
vn 0.0030 1.0000 -0.0088
vn 0.0491 0.9988 -0.0019
vn 0.0312 0.9995 0.0021
vn 0.0361 0.9993 0.0047
vn 0.0487 0.9987 0.0143
vn 0.0518 0.9986 -0.0108
vn 0.0326 0.9992 -0.0245
vn 0.0132 0.9998 -0.0168
vn 0.0031 1.0000 -0.0041
vn 0.0117 0.9999 0.0092
vn 0.0189 0.9998 0.0013
vn 0.0172 0.9998 0.0023
vn 0.0197 0.9998 0.0016
vn 0.0217 0.9998 -0.0031
vn 0.0159 0.9998 -0.0071
vn 0.0059 1.0000 -0.0049
vn 0.0007 1.0000 -0.0007
vn 0.0001 1.0000 0.0001
vn 0.0018 1.0000 0.0016
vn 0.0044 1.0000 0.0012
vn 0.0050 1.0000 -0.0003
vn 0.0033 1.0000 -0.0015
vn 0.0012 1.0000 -0.0008
vn 0.0002 1.0000 -0.0002
vn -0.0331 0.9992 -0.0234
vn -0.0061 0.9993 -0.0375
vn 0.0064 0.9998 -0.0199
vn 0.0002 0.9994 -0.0333
vn -0.0527 0.9985 -0.0112
vn -0.0280 0.9996 0.0053
vn -0.0021 1.0000 -0.0015
vn -0.0001 1.0000 -0.0001
vn -0.0660 0.9977 0.0172
vn 0.0087 0.9999 0.0126
vn 0.0301 0.9990 0.0329
vn -0.0141 0.9984 0.0552
vn -0.0356 0.9987 0.0371
vn -0.0360 0.9989 0.0299
vn -0.0150 0.9998 0.0156
vn -0.0910 0.9953 0.0332
vn 0.0033 1.0000 0.0079
vn 0.0484 0.9988 0.0008
vn -0.0328 0.9992 -0.0222
vn 0.0115 0.9996 0.0244
vn -0.0500 0.9966 0.0649
vn -0.0538 0.9982 0.0272
vn -0.0027 1.0000 0.0013
vn -0.0410 0.9989 -0.0234
vn -0.0284 0.9994 0.0216
vn 0.0687 0.9975 0.0169
vn 0.0278 0.9927 0.1174
vn -0.0277 0.9946 0.0996
vn -0.0353 0.9987 0.0371
vn -0.1092 0.9934 0.0363
vn -0.0069 1.0000 0.0029
vn 0.0468 0.9985 -0.0276
vn -0.0432 0.9991 0.0018
vn 0.0514 0.9983 -0.0291
vn 0.1228 0.9904 -0.0631
vn 0.0107 0.9959 0.0895
vn -0.1632 0.9838 0.0738
vn -0.1017 0.9938 -0.0440
vn -0.0083 1.0000 -0.0009
vn 0.0339 0.9987 -0.0389
vn -0.0064 0.9989 -0.0454
vn 0.0147 0.9998 -0.0147
vn 0.0829 0.9949 -0.0582
vn 0.0973 0.9791 -0.1789
vn -0.2303 0.9642 -0.1317
vn -0.0535 0.9985 -0.0114
vn -0.0041 1.0000 -0.0032
vn 0.0195 0.9992 -0.0335
vn 0.0173 0.9997 -0.0182
vn 0.0192 0.9996 -0.0202
vn -0.0038 0.9982 -0.0596
vn 0.0167 0.9937 -0.1109
vn -0.0630 0.9940 -0.0890
vn -0.0294 0.9994 -0.0188
vn -0.0013 1.0000 -0.0002
vn 0.0129 0.9998 -0.0136
vn 0.0223 0.9993 -0.0305
vn 0.0086 0.9994 -0.0345
vn -0.0237 0.9994 -0.0263
vn -0.0098 0.9997 -0.0221
vn -0.0068 0.9998 -0.0166
vn -0.0057 1.0000 -0.0062
vn -0.0007 1.0000 -0.0006
usemtl None
s off
f 1//1 23//1 30//1 2//1
f 2//2 30//2 31//2 3//2
f 3//3 31//3 32//3 4//3
f 4//4 32//4 33//4 5//4
f 5//5 33//5 34//5 6//5
f 6//6 34//6 35//6 7//6
f 7//7 35//7 36//7 8//7
f 8//8 36//8 247//8 248//8
f 23//9 24//9 37//9 30//9
f 30//10 37//10 38//10 31//10
f 31//11 38//11 39//11 32//11
f 32//12 39//12 40//12 33//12
f 33//13 40//13 41//13 34//13
f 34//14 41//14 42//14 35//14
f 35//15 42//15 43//15 36//15
f 36//16 43//16 246//16 247//16
f 24//17 25//17 44//17 37//17
f 37//18 44//18 45//18 38//18
f 38//19 45//19 46//19 39//19
f 39//20 46//20 47//20 40//20
f 40//21 47//21 48//21 41//21
f 41//22 48//22 49//22 42//22
f 42//23 49//23 50//23 43//23
f 43//24 50//24 245//24 246//24
f 25//25 26//25 51//25 44//25
f 44//26 51//26 52//26 45//26
f 45//27 52//27 53//27 46//27
f 46//28 53//28 54//28 47//28
f 47//29 54//29 55//29 48//29
f 48//30 55//30 56//30 49//30
f 49//31 56//31 57//31 50//31
f 50//32 57//32 244//32 245//32
f 26//33 27//33 58//33 51//33
f 51//34 58//34 59//34 52//34
f 52//35 59//35 60//35 53//35
f 53//36 60//36 61//36 54//36
f 54//37 61//37 62//37 55//37
f 55//38 62//38 63//38 56//38
f 56//39 63//39 64//39 57//39
f 57//40 64//40 243//40 244//40
f 27//41 28//41 65//41 58//41
f 58//42 65//42 66//42 59//42
f 59//43 66//43 67//43 60//43
f 60//44 67//44 68//44 61//44
f 61//45 68//45 69//45 62//45
f 62//46 69//46 70//46 63//46
f 63//47 70//47 71//47 64//47
f 64//48 71//48 242//48 243//48
f 28//49 29//49 72//49 65//49
f 65//50 72//50 73//50 66//50
f 66//51 73//51 74//51 67//51
f 67//52 74//52 75//52 68//52
f 68//53 75//53 76//53 69//53
f 69//54 76//54 77//54 70//54
f 70//55 77//55 78//55 71//55
f 71//56 78//56 241//56 242//56
f 29//57 233//57 234//57 72//57
f 72//58 234//58 235//58 73//58
f 73//59 235//59 236//59 74//59
f 74//60 236//60 237//60 75//60
f 75//61 237//61 238//61 76//61
f 76//56 238//56 239//56 77//56
f 77//56 239//56 240//56 78//56
f 78//56 240//56 286//56 241//56
f 1//62 2//62 79//62 9//62
f 9//63 79//63 80//63 10//63
f 10//64 80//64 81//64 11//64
f 11//65 81//65 82//65 12//65
f 12//66 82//66 83//66 13//66
f 13//67 83//67 84//67 14//67
f 14//68 84//68 85//68 15//68
f 15//56 85//56 262//56 263//56
f 2//69 3//69 86//69 79//69
f 79//70 86//70 87//70 80//70
f 80//71 87//71 88//71 81//71
f 81//72 88//72 89//72 82//72
f 82//73 89//73 90//73 83//73
f 83//74 90//74 91//74 84//74
f 84//75 91//75 92//75 85//75
f 85//76 92//76 261//76 262//76
f 3//77 4//77 93//77 86//77
f 86//78 93//78 94//78 87//78
f 87//79 94//79 95//79 88//79
f 88//80 95//80 96//80 89//80
f 89//81 96//81 97//81 90//81
f 90//82 97//82 98//82 91//82
f 91//83 98//83 99//83 92//83
f 92//84 99//84 260//84 261//84
f 4//85 5//85 100//85 93//85
f 93//86 100//86 101//86 94//86
f 94//87 101//87 102//87 95//87
f 95//88 102//88 103//88 96//88
f 96//89 103//89 104//89 97//89
f 97//90 104//90 105//90 98//90
f 98//91 105//91 106//91 99//91
f 99//92 106//92 259//92 260//92
f 5//93 6//93 107//93 100//93
f 100//94 107//94 108//94 101//94
f 101//95 108//95 109//95 102//95
f 102//96 109//96 110//96 103//96
f 103//97 110//97 111//97 104//97
f 104//98 111//98 112//98 105//98
f 105//99 112//99 113//99 106//99
f 106//100 113//100 258//100 259//100
f 6//101 7//101 114//101 107//101
f 107//102 114//102 115//102 108//102
f 108//103 115//103 116//103 109//103
f 109//104 116//104 117//104 110//104
f 110//105 117//105 118//105 111//105
f 111//106 118//106 119//106 112//106
f 112//107 119//107 120//107 113//107
f 113//108 120//108 257//108 258//108
f 7//109 8//109 121//109 114//109
f 114//110 121//110 122//110 115//110
f 115//111 122//111 123//111 116//111
f 116//112 123//112 124//112 117//112
f 117//113 124//113 125//113 118//113
f 118//114 125//114 126//114 119//114
f 119//115 126//115 127//115 120//115
f 120//116 127//116 256//116 257//116
f 8//117 248//117 249//117 121//117
f 121//118 249//118 250//118 122//118
f 122//119 250//119 251//119 123//119
f 123//120 251//120 252//120 124//120
f 124//121 252//121 253//121 125//121
f 125//122 253//122 254//122 126//122
f 126//123 254//123 255//123 127//123
f 127//124 255//124 287//124 256//124
f 1//125 9//125 128//125 16//125
f 16//126 128//126 129//126 17//126
f 17//127 129//127 130//127 18//127
f 18//128 130//128 131//128 19//128
f 19//129 131//129 132//129 20//129
f 20//130 132//130 133//130 21//130
f 21//131 133//131 134//131 22//131
f 22//132 134//132 277//132 278//132
f 9//133 10//133 135//133 128//133
f 128//134 135//134 136//134 129//134
f 129//135 136//135 137//135 130//135
f 130//136 137//136 138//136 131//136
f 131//137 138//137 139//137 132//137
f 132//138 139//138 140//138 133//138
f 133//139 140//139 141//139 134//139
f 134//140 141//140 276//140 277//140
f 10//141 11//141 142//141 135//141
f 135//142 142//142 143//142 136//142
f 136//143 143//143 144//143 137//143
f 137//144 144//144 145//144 138//144
f 138//145 145//145 146//145 139//145
f 139//146 146//146 147//146 140//146
f 140//147 147//147 148//147 141//147
f 141//148 148//148 275//148 276//148
f 11//149 12//149 149//149 142//149
f 142//150 149//150 150//150 143//150
f 143//151 150//151 151//151 144//151
f 144//152 151//152 152//152 145//152
f 145//153 152//153 153//153 146//153
f 146//154 153//154 154//154 147//154
f 147//155 154//155 155//155 148//155
f 148//156 155//156 274//156 275//156
f 12//157 13//157 156//157 149//157
f 149//158 156//158 157//158 150//158
f 150//159 157//159 158//159 151//159
f 151//160 158//160 159//160 152//160
f 152//161 159//161 160//161 153//161
f 153//162 160//162 161//162 154//162
f 154//163 161//163 162//163 155//163
f 155//164 162//164 273//164 274//164
f 13//165 14//165 163//165 156//165
f 156//166 163//166 164//166 157//166
f 157//167 164//167 165//167 158//167
f 158//168 165//168 166//168 159//168
f 159//169 166//169 167//169 160//169
f 160//170 167//170 168//170 161//170
f 161//171 168//171 169//171 162//171
f 162//172 169//172 272//172 273//172
f 14//173 15//173 170//173 163//173
f 163//174 170//174 171//174 164//174
f 164//175 171//175 172//175 165//175
f 165//176 172//176 173//176 166//176
f 166//177 173//177 174//177 167//177
f 167//178 174//178 175//178 168//178
f 168//179 175//179 176//179 169//179
f 169//180 176//180 271//180 272//180
f 15//181 263//181 264//181 170//181
f 170//182 264//182 265//182 171//182
f 171//183 265//183 266//183 172//183
f 172//184 266//184 267//184 173//184
f 173//185 267//185 268//185 174//185
f 174//186 268//186 269//186 175//186
f 175//187 269//187 270//187 176//187
f 176//56 270//56 289//56 271//56
f 1//188 16//188 177//188 23//188
f 23//189 177//189 178//189 24//189
f 24//190 178//190 179//190 25//190
f 25//191 179//191 180//191 26//191
f 26//192 180//192 181//192 27//192
f 27//193 181//193 182//193 28//193
f 28//194 182//194 183//194 29//194
f 29//195 183//195 232//195 233//195
f 16//196 17//196 184//196 177//196
f 177//197 184//197 185//197 178//197
f 178//198 185//198 186//198 179//198
f 179//199 186//199 187//199 180//199
f 180//200 187//200 188//200 181//200
f 181//201 188//201 189//201 182//201
f 182//202 189//202 190//202 183//202
f 183//61 190//61 231//61 232//61
f 17//203 18//203 191//203 184//203
f 184//204 191//204 192//204 185//204
f 185//205 192//205 193//205 186//205
f 186//206 193//206 194//206 187//206
f 187//207 194//207 195//207 188//207
f 188//208 195//208 196//208 189//208
f 189//209 196//209 197//209 190//209
f 190//210 197//210 230//210 231//210
f 18//211 19//211 198//211 191//211
f 191//212 198//212 199//212 192//212
f 192//213 199//213 200//213 193//213
f 193//214 200//214 201//214 194//214
f 194//215 201//215 202//215 195//215
f 195//216 202//216 203//216 196//216
f 196//217 203//217 204//217 197//217
f 197//218 204//218 229//218 230//218
f 19//219 20//219 205//219 198//219
f 198//220 205//220 206//220 199//220
f 199//221 206//221 207//221 200//221
f 200//222 207//222 208//222 201//222
f 201//223 208//223 209//223 202//223
f 202//224 209//224 210//224 203//224
f 203//225 210//225 211//225 204//225
f 204//226 211//226 228//226 229//226
f 20//227 21//227 212//227 205//227
f 205//228 212//228 213//228 206//228
f 206//229 213//229 214//229 207//229
f 207//230 214//230 215//230 208//230
f 208//231 215//231 216//231 209//231
f 209//232 216//232 217//232 210//232
f 210//233 217//233 218//233 211//233
f 211//234 218//234 227//234 228//234
f 21//235 22//235 219//235 212//235
f 212//236 219//236 220//236 213//236
f 213//237 220//237 221//237 214//237
f 214//238 221//238 222//238 215//238
f 215//239 222//239 223//239 216//239
f 216//240 223//240 224//240 217//240
f 217//241 224//241 225//241 218//241
f 218//242 225//242 226//242 227//242
f 22//243 278//243 279//243 219//243
f 219//244 279//244 280//244 220//244
f 220//245 280//245 281//245 221//245
f 221//246 281//246 282//246 222//246
f 222//247 282//247 283//247 223//247
f 223//248 283//248 284//248 224//248
f 224//249 284//249 285//249 225//249
f 225//250 285//250 288//250 226//250
