# Blender v2.79 (sub 0) OBJ File: 'gun.blend'
# www.blender.org
mtllib gun.mtl
o Cube
v -0.062950 0.155431 0.844752
v -0.062950 0.333190 0.844752
v -0.062950 0.155431 0.097977
v -0.062950 0.333190 0.097977
v 0.062950 0.155431 0.844752
v 0.062950 0.333190 0.844752
v 0.062950 0.155431 0.097977
v 0.062950 0.333190 0.097977
v -0.060608 0.341996 0.842568
v -0.060608 0.341996 0.097977
v 0.060608 0.341996 0.097977
v 0.060608 0.341996 0.842568
v -0.058397 0.161860 0.852833
v -0.058397 0.326761 0.852833
v 0.058397 0.326761 0.852833
v 0.058397 0.161860 0.852833
v -0.062950 0.333472 0.040505
v -0.062950 0.158082 0.069426
v 0.062950 0.158082 0.069426
v 0.062950 0.333472 0.040505
v -0.060608 0.342161 0.039072
v 0.060608 0.342161 0.039072
v -0.060307 0.330376 0.036261
v -0.060307 0.162349 0.063968
v 0.060307 0.162349 0.063968
v 0.060307 0.330376 0.036261
v -0.058064 0.338700 0.034889
v 0.058064 0.338700 0.034889
v -0.062950 0.332972 0.029317
v -0.062950 0.157582 0.058238
v 0.062950 0.157582 0.058238
v 0.062950 0.332972 0.029317
v -0.060608 0.341661 0.027884
v 0.060608 0.341661 0.027884
v -0.062950 0.333052 0.019602
v -0.062950 0.157661 0.048524
v 0.062950 0.157661 0.048524
v 0.062950 0.333052 0.019602
v -0.060608 0.341740 0.018170
v 0.060608 0.341740 0.018170
v -0.059746 0.330841 0.015658
v -0.059746 0.164378 0.043107
v 0.059746 0.164378 0.043107
v 0.059746 0.330841 0.015658
v -0.057523 0.339088 0.014298
v 0.057523 0.339088 0.014298
v -0.062950 0.332616 0.010839
v -0.062950 0.157225 0.039760
v 0.062950 0.157225 0.039760
v 0.062950 0.332616 0.010839
v -0.060608 0.341304 0.009406
v 0.060608 0.341304 0.009406
v -0.062950 0.332751 0.003503
v -0.062950 0.157360 0.032424
v 0.062950 0.157360 0.032424
v 0.062950 0.332751 0.003503
v -0.060608 0.341439 0.002070
v 0.060608 0.341439 0.002070
v -0.060339 0.329627 -0.001089
v -0.060339 0.161509 0.026633
v 0.060339 0.161509 0.026633
v 0.060339 0.329627 -0.001089
v -0.058095 0.337955 -0.002462
v 0.058095 0.337955 -0.002462
v -0.062950 0.332462 -0.006409
v -0.062950 0.157071 0.022512
v 0.062950 0.157071 0.022512
v 0.062950 0.332462 -0.006409
v -0.060608 0.341150 -0.007842
v 0.060608 0.341150 -0.007842
v -0.062950 0.332879 -0.016111
v -0.062950 0.157489 0.012811
v 0.062950 0.157489 0.012811
v 0.062950 0.332879 -0.016111
v -0.060608 0.341568 -0.017543
v 0.060608 0.341568 -0.017543
v -0.062950 0.333190 -0.045502
v -0.062950 0.155431 -0.045502
v 0.062950 0.155431 -0.045502
v 0.062950 0.333190 -0.045502
v -0.060608 0.341996 -0.045502
v 0.060608 0.341996 -0.045502
v -0.051221 0.106966 0.826426
v -0.051221 0.212074 0.826426
v -0.051221 0.106966 -0.029664
v -0.051221 0.163317 -0.042400
v 0.051221 0.106966 0.826426
v 0.051221 0.212074 0.826426
v 0.051221 0.106966 -0.029664
v 0.051221 0.163317 -0.042400
v -0.051221 0.106966 0.141826
v -0.051221 0.212074 0.141826
v 0.051221 0.106966 0.141826
v 0.051221 0.212074 0.141826
v -0.048651 0.097179 0.158999
v -0.048651 0.097179 0.809253
v 0.048651 0.097179 0.809253
v 0.048651 0.097179 0.158999
v 0.043284 0.040085 -0.035280
v -0.043284 0.040085 -0.035280
v 0.043284 0.040085 0.084843
v -0.043284 0.040085 0.084843
v 0.043284 -0.038185 -0.066930
v -0.043284 -0.038185 -0.066930
v 0.043284 -0.038185 0.054951
v -0.043284 -0.038185 0.054951
v 0.043284 -0.252843 -0.146927
v -0.043284 -0.252843 -0.146927
v 0.043284 -0.252843 -0.023129
v -0.043284 -0.252843 -0.023129
v -0.043284 -0.219017 -0.152111
v -0.043284 -0.219017 0.005146
v 0.043284 -0.219017 -0.152111
v 0.043284 -0.219017 0.005146
vn -1.0000 0.0000 0.0000
vn -0.9660 0.2587 0.0010
vn 1.0000 0.0000 0.0000
vn -0.6761 0.3417 0.6528
vn 0.0000 -1.0000 0.0000
vn 0.0000 1.0000 0.0028
vn 0.0000 1.0000 0.0000
vn 0.9664 0.2570 0.0000
vn -0.9664 0.2570 0.0000
vn 0.6761 0.3417 0.6528
vn 0.0000 0.0000 1.0000
vn 0.8712 0.0000 0.4909
vn -0.8712 0.0000 0.4909
vn 0.0000 -0.7826 0.6226
vn 0.0000 0.5588 0.8293
vn -0.8014 0.1193 -0.5861
vn -0.8712 -0.0799 -0.4843
vn 0.9660 0.2587 0.0010
vn 0.0000 -0.9957 -0.0924
vn 0.8487 0.3005 0.4353
vn 0.0000 -0.7688 0.6395
vn 0.8712 -0.0799 -0.4843
vn 0.0000 -0.7878 -0.6160
vn 0.8014 0.1193 -0.5861
vn 0.0000 0.7705 -0.6374
vn -0.9655 0.2605 0.0021
vn 0.0000 0.9211 0.3894
vn -0.9249 0.0619 0.3751
vn -0.8487 0.3005 0.4353
vn 0.9249 0.0619 0.3751
vn 0.0000 0.8249 -0.5653
vn 0.7468 0.0927 -0.6586
vn 0.0000 -1.0000 -0.0082
vn 0.9655 0.2605 0.0021
vn 0.0000 1.0000 0.0082
vn 0.8126 0.0948 0.5751
vn -0.7403 0.2988 0.6022
vn -0.7986 -0.0979 -0.5938
vn -0.7468 0.0927 -0.6586
vn 0.7986 -0.0979 -0.5938
vn 0.0000 -0.6277 -0.7784
vn 0.0000 0.9998 0.0185
vn 0.9653 0.2609 0.0048
vn 0.0000 -0.4239 0.9057
vn 0.7403 0.2988 0.6022
vn 0.0000 0.9109 0.4127
vn -0.8126 0.0948 0.5751
vn 0.8879 -0.0748 -0.4539
vn -0.8214 0.1298 -0.5553
vn -0.9653 0.2609 0.0048
vn 0.0000 -0.9998 -0.0185
vn 0.0000 0.8598 0.5106
vn 0.7830 0.3008 0.5444
vn 0.0000 -0.8129 -0.5824
vn 0.8214 0.1298 -0.5553
vn 0.0000 0.7928 -0.6095
vn -0.8879 -0.0748 -0.4539
vn -0.9650 0.2619 0.0113
vn -0.8780 0.0779 0.4723
vn -0.7830 0.3008 0.5444
vn 0.8780 0.0779 0.4723
vn 0.0000 -0.6804 0.7328
vn 0.0000 0.9999 0.0153
vn 0.0000 -0.9991 -0.0430
vn 0.9650 0.2619 0.0113
vn 0.0000 0.9991 0.0430
vn 0.0000 0.0000 -1.0000
vn -0.9659 0.2588 0.0033
vn 0.0000 -0.9994 0.0353
vn 0.9659 0.2588 0.0033
vn 0.0000 -0.2205 -0.9754
vn -0.9672 -0.2540 0.0000
vn -0.0000 0.9667 -0.2558
vn 0.9930 -0.1178 0.0000
vn 0.9672 -0.2540 0.0000
vn 0.0000 -0.8688 0.4951
vn 0.0000 -0.8688 -0.4951
vn 0.0000 -0.3568 0.9342
vn -0.9930 -0.1178 0.0000
vn -0.0000 -0.6485 0.7612
vn 0.0000 0.0837 -0.9965
vn 0.0000 0.3749 -0.9271
vn 0.0000 -0.1515 -0.9885
vn 0.0000 -0.6413 0.7673
vn 0.0000 -0.2655 0.9641
vn 0.0000 0.4261 -0.9047
usemtl None
s off
f 1//1 2//1 4//1 3//1
f 4//2 10//2 21//2 17//2
f 7//3 8//3 6//3 5//3
f 9//4 2//4 14//4
f 3//5 7//5 5//5 1//5
f 10//6 11//6 22//6 21//6
f 11//7 10//7 9//7 12//7
f 6//8 8//8 11//8 12//8
f 4//9 2//9 9//9 10//9
f 15//10 6//10 12//10
f 16//11 15//11 14//11 13//11
f 5//12 6//12 15//12 16//12
f 2//13 1//13 13//13 14//13
f 1//14 5//14 16//14 13//14
f 15//15 12//15 9//15 14//15
f 17//16 21//16 27//16 23//16
f 18//17 17//17 23//17 24//17
f 3//1 4//1 17//1 18//1
f 11//18 8//18 20//18 22//18
f 8//3 7//3 19//3 20//3
f 7//19 3//19 18//19 19//19
f 28//20 26//20 32//20 34//20
f 25//21 24//21 30//21 31//21
f 20//22 19//22 25//22 26//22
f 19//23 18//23 24//23 25//23
f 22//24 20//24 26//24 28//24
f 21//25 22//25 28//25 27//25
f 29//26 33//26 39//26 35//26
f 30//1 29//1 35//1 36//1
f 27//27 28//27 34//27 33//27
f 24//28 23//28 29//28 30//28
f 23//29 27//29 33//29 29//29
f 26//30 25//30 31//30 32//30
f 39//31 40//31 46//31 45//31
f 40//32 38//32 44//32 46//32
f 32//3 31//3 37//3 38//3
f 31//33 30//33 36//33 37//33
f 34//34 32//34 38//34 40//34
f 33//35 34//35 40//35 39//35
f 44//36 43//36 49//36 50//36
f 41//37 45//37 51//37 47//37
f 36//38 35//38 41//38 42//38
f 35//39 39//39 45//39 41//39
f 38//40 37//40 43//40 44//40
f 37//41 36//41 42//41 43//41
f 51//42 52//42 58//42 57//42
f 52//43 50//43 56//43 58//43
f 43//44 42//44 48//44 49//44
f 46//45 44//45 50//45 52//45
f 45//46 46//46 52//46 51//46
f 42//47 41//47 47//47 48//47
f 56//48 55//48 61//48 62//48
f 53//49 57//49 63//49 59//49
f 48//1 47//1 53//1 54//1
f 47//50 51//50 57//50 53//50
f 50//3 49//3 55//3 56//3
f 49//51 48//51 54//51 55//51
f 63//52 64//52 70//52 69//52
f 64//53 62//53 68//53 70//53
f 55//54 54//54 60//54 61//54
f 58//55 56//55 62//55 64//55
f 57//56 58//56 64//56 63//56
f 54//57 53//57 59//57 60//57
f 68//3 67//3 73//3 74//3
f 65//58 69//58 75//58 71//58
f 60//59 59//59 65//59 66//59
f 59//60 63//60 69//60 65//60
f 62//61 61//61 67//61 68//61
f 61//62 60//62 66//62 67//62
f 72//1 71//1 77//1 78//1
f 75//63 76//63 82//63 81//63
f 67//64 66//64 72//64 73//64
f 70//65 68//65 74//65 76//65
f 69//66 70//66 76//66 75//66
f 66//1 65//1 71//1 72//1
f 78//67 77//67 80//67 79//67
f 80//67 77//67 81//67 82//67
f 71//68 75//68 81//68 77//68
f 74//3 73//3 79//3 80//3
f 73//69 72//69 78//69 79//69
f 76//70 74//70 80//70 82//70
f 91//1 92//1 86//1 85//1
f 85//71 86//71 90//71 89//71
f 93//3 94//3 88//3 87//3
f 87//11 88//11 84//11 83//11
f 83//72 91//72 95//72 96//72
f 94//7 92//7 84//7 88//7
f 90//73 86//73 92//73 94//73
f 89//74 93//74 101//74 99//74
f 89//3 90//3 94//3 93//3
f 83//1 84//1 92//1 91//1
f 95//5 98//5 97//5 96//5
f 93//75 87//75 97//75 98//75
f 87//76 83//76 96//76 97//76
f 91//77 93//77 98//77 95//77
f 101//78 102//78 106//78 105//78
f 91//79 85//79 100//79 102//79
f 93//80 91//80 102//80 101//80
f 85//81 89//81 99//81 100//81
f 112//1 111//1 108//1 110//1
f 99//3 101//3 105//3 103//3
f 102//1 100//1 104//1 106//1
f 100//82 99//82 103//82 104//82
f 108//5 107//5 109//5 110//5
f 111//83 113//83 107//83 108//83
f 114//84 112//84 110//84 109//84
f 113//3 114//3 109//3 107//3
f 103//3 105//3 114//3 113//3
f 105//85 106//85 112//85 114//85
f 104//86 103//86 113//86 111//86
f 106//1 104//1 111//1 112//1
