# Blender v2.79 (sub 0) OBJ File: 'rock1.blend'
# www.blender.org
mtllib rock1.mtl
o Icosphere
v -0.045529 -0.470411 0.088252
v 0.971191 -0.358409 0.925429
v -0.347480 -0.245700 1.115817
v -1.130218 -0.035285 0.311889
v -0.354386 -0.273716 -0.514053
v 0.781156 -0.418590 -0.015498
v 0.184552 0.427922 1.028124
v -1.070225 0.653716 0.933131
v -0.947505 0.636220 0.002411
v 0.225732 0.542697 -0.212310
v 1.300559 0.608877 0.393261
v -0.048694 1.274560 0.592401
v -0.151940 -0.503654 0.693273
v 0.400574 -0.454542 0.546333
v 0.276903 -0.322582 1.000062
v 1.057345 -0.479765 0.567946
v 0.411584 -0.529697 -0.132928
v -0.536232 -0.432107 0.294471
v -0.972104 -0.172363 0.986810
v -0.190104 -0.484444 -0.288016
v -0.792980 -0.226415 -0.173408
v 0.196497 -0.267483 -0.414447
v 1.367190 0.210600 0.746073
v 1.417371 0.168572 0.141109
v -0.075627 0.082324 1.195290
v 0.674798 0.062547 1.008080
v -1.325387 0.280294 0.687864
v -0.820096 0.120893 1.253286
v -0.710263 0.208973 -0.400082
v -1.391515 0.282697 0.012300
v 0.633021 0.061812 -0.350428
v -0.039196 0.180653 -0.623627
v 1.129491 0.706448 0.854792
v -0.444328 0.522519 1.138591
v -1.207442 0.770365 0.381008
v -0.424998 0.581521 -0.117369
v 0.793327 0.557217 0.045603
v 0.147002 0.962629 0.959490
v 0.600355 0.905554 0.610898
v -0.729742 1.194897 0.941445
v -0.591380 1.090512 0.394515
v 0.066539 0.954722 0.292492
vn 0.0776 -0.9961 -0.0411
vn -0.0467 -0.9493 0.3110
vn -0.1083 -0.9914 -0.0735
vn -0.0535 -0.9969 0.0578
vn -0.0935 -0.9929 0.0730
vn 0.8166 -0.4574 0.3521
vn 0.1317 -0.3352 0.9329
vn -0.8085 -0.5843 0.0707
vn -0.6083 -0.2725 -0.7454
vn 0.4344 -0.4211 -0.7962
vn 0.3426 0.0571 0.9377
vn 0.0600 -0.2817 0.9576
vn -0.8046 -0.5889 0.0767
vn -0.3164 -0.0093 -0.9486
vn 0.5290 -0.3695 -0.7639
vn 0.1399 0.1357 0.9808
vn -0.2774 0.1600 0.9473
vn -0.3818 0.7570 -0.5303
vn -0.0477 0.7664 -0.6406
vn 0.2239 0.8620 -0.4547
vn 0.4133 0.6976 -0.5852
vn 0.3249 0.8507 -0.4133
vn 0.2380 0.7879 -0.5680
vn 0.0301 0.6894 -0.7237
vn 0.0393 0.7149 -0.6981
vn -0.0920 0.6910 -0.7170
vn -0.2327 0.9428 -0.2388
vn -0.4387 0.8557 -0.2743
vn -0.8076 0.5034 0.3071
vn 0.1993 0.7966 0.5707
vn 0.0611 0.3046 0.9505
vn 0.1915 0.1382 0.9717
vn 0.4351 0.7872 0.4370
vn 0.2667 0.9444 0.1923
vn 0.3745 0.9255 -0.0569
vn 0.4415 0.5312 -0.7231
vn 0.4176 0.4811 -0.7708
vn 0.3433 0.5162 -0.7847
vn -0.0481 0.7649 -0.6423
vn -0.2037 0.6860 -0.6985
vn -0.1043 0.6507 -0.7522
vn -0.5160 0.6320 -0.5782
vn -0.9529 0.2884 0.0943
vn -0.8679 0.3964 0.2994
vn -0.1971 0.4353 0.8784
vn 0.0863 0.1981 0.9764
vn 0.2081 0.2945 0.9327
vn 0.1403 0.1344 0.9809
vn 0.3597 -0.0320 0.9325
vn 0.8930 0.3728 0.2522
vn 0.3963 0.5474 -0.7371
vn 0.3253 -0.2541 -0.9108
vn 0.1710 -0.3415 -0.9242
vn -0.4105 0.4941 -0.7664
vn -0.5161 -0.3164 -0.7960
vn -0.6692 -0.7206 -0.1812
vn -0.7359 0.0598 0.6745
vn -0.7581 -0.1773 0.6275
vn -0.2293 -0.5868 0.7766
vn 0.2397 0.2705 0.9324
vn 0.2277 -0.2548 0.9398
vn 0.0998 -0.1236 0.9873
vn 0.9731 0.2207 0.0654
vn 0.8970 -0.4295 0.1042
vn 0.6752 -0.6288 -0.3856
vn 0.3953 -0.5018 -0.7694
vn 0.1376 -0.6702 -0.7293
vn 0.1391 -0.6719 -0.7275
vn -0.4230 -0.7954 -0.4341
vn -0.4145 -0.8948 -0.1659
vn -0.5557 -0.8292 -0.0596
vn -0.5559 -0.8304 -0.0384
vn -0.3252 -0.9343 0.1458
vn -0.1944 -0.8747 0.4440
vn 0.3531 -0.8983 -0.2613
vn -0.0417 -0.9931 0.1092
vn -0.0761 -0.9912 0.1084
vn -0.0093 -0.8554 0.5179
vn 0.1673 -0.9335 0.3171
vn -0.0201 -0.9615 0.2741
usemtl None
s off
f 1//1 14//1 13//1
f 2//2 14//2 16//2
f 1//3 13//3 18//3
f 1//4 18//4 20//4
f 1//5 20//5 17//5
f 2//6 16//6 23//6
f 3//7 15//7 25//7
f 4//8 19//8 27//8
f 5//9 21//9 29//9
f 6//10 22//10 31//10
f 2//11 23//11 26//11
f 3//12 25//12 28//12
f 4//13 27//13 30//13
f 5//14 29//14 32//14
f 6//15 31//15 24//15
f 7//16 33//16 38//16
f 8//17 34//17 40//17
f 9//18 35//18 41//18
f 10//19 36//19 42//19
f 11//20 37//20 39//20
f 39//21 42//21 12//21
f 39//22 37//22 42//22
f 37//23 10//23 42//23
f 42//24 41//24 12//24
f 42//25 36//25 41//25
f 36//26 9//26 41//26
f 41//27 40//27 12//27
f 41//28 35//28 40//28
f 35//29 8//29 40//29
f 40//30 38//30 12//30
f 40//31 34//31 38//31
f 34//32 7//32 38//32
f 38//33 39//33 12//33
f 38//34 33//34 39//34
f 33//35 11//35 39//35
f 24//36 37//36 11//36
f 24//37 31//37 37//37
f 31//38 10//38 37//38
f 32//39 36//39 10//39
f 32//40 29//40 36//40
f 29//41 9//41 36//41
f 30//42 35//42 9//42
f 30//43 27//43 35//43
f 27//44 8//44 35//44
f 28//45 34//45 8//45
f 28//46 25//46 34//46
f 25//47 7//47 34//47
f 26//48 33//48 7//48
f 26//49 23//49 33//49
f 23//50 11//50 33//50
f 31//51 32//51 10//51
f 31//52 22//52 32//52
f 22//53 5//53 32//53
f 29//54 30//54 9//54
f 29//55 21//55 30//55
f 21//56 4//56 30//56
f 27//57 28//57 8//57
f 27//58 19//58 28//58
f 19//59 3//59 28//59
f 25//60 26//60 7//60
f 25//61 15//61 26//61
f 15//62 2//62 26//62
f 23//63 24//63 11//63
f 23//64 16//64 24//64
f 16//65 6//65 24//65
f 17//66 22//66 6//66
f 17//67 20//67 22//67
f 20//68 5//68 22//68
f 20//69 21//69 5//69
f 20//70 18//70 21//70
f 18//71 4//71 21//71
f 18//72 19//72 4//72
f 18//73 13//73 19//73
f 13//74 3//74 19//74
f 16//75 17//75 6//75
f 16//76 14//76 17//76
f 14//77 1//77 17//77
f 13//78 15//78 3//78
f 13//79 14//79 15//79
f 14//80 2//80 15//80
