# Blender v2.79 (sub 0) OBJ File: 'rock2.blend'
# www.blender.org
mtllib rock2.mtl
o Icosphere
v -0.001125 -1.000319 0.001193
v 0.794515 -0.409748 0.567229
v -0.374662 -0.382851 0.909557
v -0.895463 -0.446593 0.000654
v -0.313319 -0.435470 -0.877538
v 0.698668 -0.457697 -0.501531
v 0.219954 0.662994 1.094272
v -0.958615 0.600892 0.685019
v -0.891159 0.511968 -0.673724
v 0.183490 0.425767 -0.799974
v 0.865995 0.440051 0.073478
v -0.020103 1.027137 0.039734
v -0.172758 -0.838563 0.509201
v 0.433652 -0.846267 0.315248
v 0.343553 -0.474695 0.850554
v 0.833525 -0.532901 0.018144
v 0.405835 -0.859080 -0.289691
v -0.526435 -0.850294 0.000265
v -0.761963 -0.487480 0.528418
v -0.168280 -0.852887 -0.494713
v -0.693058 -0.523980 -0.503561
v 0.203123 -0.550411 -0.752446
v 0.874477 -0.029411 0.403888
v 0.875904 -0.032093 -0.235005
v -0.101957 0.127938 1.218212
v 0.588051 0.067934 0.884942
v -0.964115 0.010354 0.320036
v -0.629992 0.059272 0.870585
v -0.625321 0.014187 -0.840915
v -0.957486 0.002115 -0.311984
v 0.541724 -0.018595 -0.766006
v -0.015327 0.002864 -1.005866
v 0.948780 0.687204 0.624565
v -0.397839 0.758125 1.055348
v -0.900593 0.542932 0.021697
v -0.353998 0.559156 -0.883842
v 0.494384 0.441512 -0.305560
v 0.158856 0.951906 0.599791
v 0.546500 0.879741 0.047597
v -0.587219 0.968048 0.446247
v -0.383766 0.711526 -0.240102
v 0.117220 0.838094 -0.467244
vn 0.0938 -0.9391 0.3307
vn 0.6933 -0.6911 0.2043
vn -0.2689 -0.9403 0.2086
vn -0.2693 -0.9441 -0.1899
vn 0.1023 -0.9436 -0.3150
vn 0.9813 -0.1609 0.1058
vn 0.0039 -0.5187 0.8549
vn -0.9331 -0.2895 0.2136
vn -0.6087 -0.3650 -0.7045
vn 0.4749 -0.3232 -0.8185
vn 0.8619 0.0361 0.5059
vn -0.5153 -0.2247 0.8271
vn -0.9897 -0.1427 -0.0085
vn -0.2614 -0.1032 -0.9597
vn 0.8460 -0.0186 -0.5329
vn 0.2689 0.8457 0.4609
vn -0.4897 0.7661 0.4163
vn -0.3310 0.9425 -0.0465
vn 0.2700 0.6306 -0.7276
vn 0.6450 0.4315 -0.6307
vn 0.2453 0.9282 -0.2797
vn 0.6856 0.4056 -0.6045
vn 0.7267 0.4983 -0.4728
vn -0.3946 0.8208 -0.4130
vn -0.3357 0.9130 -0.2316
vn -0.1757 0.9561 -0.2344
vn -0.3874 0.8200 -0.4213
vn -0.4688 0.7728 -0.4278
vn -0.7365 0.6653 -0.1226
vn -0.0064 0.9908 0.1351
vn -0.0495 0.9394 0.3392
vn 0.1021 0.8644 0.4924
vn 0.2508 0.9668 0.0497
vn 0.3135 0.9447 0.0966
vn 0.7660 0.5357 -0.3553
vn 0.6466 0.4267 -0.6323
vn 0.7285 0.5206 -0.4453
vn 0.7074 0.5350 -0.4619
vn 0.2265 0.3382 -0.9134
vn -0.2597 0.0534 -0.9642
vn -0.3705 0.1118 -0.9221
vn -0.9931 0.1160 -0.0186
vn -0.9937 0.1119 -0.0119
vn -0.9935 0.0666 -0.0927
vn -0.5424 -0.0416 0.8391
vn -0.5458 -0.0400 0.8370
vn -0.0243 0.2394 0.9706
vn 0.5404 0.0386 0.8405
vn 0.8096 -0.2478 0.5322
vn 0.9907 -0.0660 -0.1192
vn 0.3912 0.2476 -0.8864
vn 0.3734 -0.2604 -0.8904
vn 0.1415 -0.3655 -0.9200
vn -0.8147 -0.2613 -0.5176
vn -0.8231 -0.2236 -0.5220
vn -0.8907 -0.3363 -0.3059
vn -0.8004 -0.3098 0.5133
vn -0.8434 -0.1236 0.5228
vn -0.6272 -0.2988 0.7193
vn 0.4308 -0.0505 0.9010
vn 0.4055 -0.2386 0.8824
vn 0.5386 -0.2927 0.7901
vn 0.9998 0.0196 0.0021
vn 0.9965 -0.0830 0.0026
vn 0.9365 -0.2180 -0.2746
vn 0.4371 -0.6480 -0.6237
vn 0.2074 -0.7694 -0.6041
vn 0.0306 -0.6698 -0.7419
vn -0.4213 -0.6881 -0.5907
vn -0.4927 -0.7956 -0.3524
vn -0.7248 -0.6624 -0.1893
vn -0.7315 -0.6688 0.1332
vn -0.4718 -0.8108 0.3466
vn -0.3969 -0.6987 0.5952
vn 0.7008 -0.6574 -0.2770
vn 0.6115 -0.7911 -0.0114
vn 0.3309 -0.9436 0.0048
vn -0.0239 -0.6658 0.7458
vn 0.1758 -0.7946 0.5811
vn 0.4513 -0.6957 0.5589
usemtl None
s off
f 1//1 14//1 13//1
f 2//2 14//2 16//2
f 1//3 13//3 18//3
f 1//4 18//4 20//4
f 1//5 20//5 17//5
f 2//6 16//6 23//6
f 3//7 15//7 25//7
f 4//8 19//8 27//8
f 5//9 21//9 29//9
f 6//10 22//10 31//10
f 2//11 23//11 26//11
f 3//12 25//12 28//12
f 4//13 27//13 30//13
f 5//14 29//14 32//14
f 6//15 31//15 24//15
f 7//16 33//16 38//16
f 8//17 34//17 40//17
f 9//18 35//18 41//18
f 10//19 36//19 42//19
f 11//20 37//20 39//20
f 39//21 42//21 12//21
f 39//22 37//22 42//22
f 37//23 10//23 42//23
f 42//24 41//24 12//24
f 42//25 36//25 41//25
f 36//26 9//26 41//26
f 41//27 40//27 12//27
f 41//28 35//28 40//28
f 35//29 8//29 40//29
f 40//30 38//30 12//30
f 40//31 34//31 38//31
f 34//32 7//32 38//32
f 38//33 39//33 12//33
f 38//34 33//34 39//34
f 33//35 11//35 39//35
f 24//36 37//36 11//36
f 24//37 31//37 37//37
f 31//38 10//38 37//38
f 32//39 36//39 10//39
f 32//40 29//40 36//40
f 29//41 9//41 36//41
f 30//42 35//42 9//42
f 30//43 27//43 35//43
f 27//44 8//44 35//44
f 28//45 34//45 8//45
f 28//46 25//46 34//46
f 25//47 7//47 34//47
f 26//48 33//48 7//48
f 26//49 23//49 33//49
f 23//50 11//50 33//50
f 31//51 32//51 10//51
f 31//52 22//52 32//52
f 22//53 5//53 32//53
f 29//54 30//54 9//54
f 29//55 21//55 30//55
f 21//56 4//56 30//56
f 27//57 28//57 8//57
f 27//58 19//58 28//58
f 19//59 3//59 28//59
f 25//60 26//60 7//60
f 25//61 15//61 26//61
f 15//62 2//62 26//62
f 23//63 24//63 11//63
f 23//64 16//64 24//64
f 16//65 6//65 24//65
f 17//66 22//66 6//66
f 17//67 20//67 22//67
f 20//68 5//68 22//68
f 20//69 21//69 5//69
f 20//70 18//70 21//70
f 18//71 4//71 21//71
f 18//72 19//72 4//72
f 18//73 13//73 19//73
f 13//74 3//74 19//74
f 16//75 17//75 6//75
f 16//76 14//76 17//76
f 14//77 1//77 17//77
f 13//78 15//78 3//78
f 13//79 14//79 15//79
f 14//80 2//80 15//80
