# Blender v2.79 (sub 0) OBJ File: 'wall1.blend'
# www.blender.org
mtllib wall1.mtl
o Plane
v -100.618446 3.164671 50.456535
v 99.908615 -0.173210 49.933537
v -99.559753 -0.224194 -49.505936
v 100.169815 1.136059 -50.116642
v -100.512138 2.747807 0.380720
v -0.049602 0.253820 50.036613
v 100.021469 0.146813 -0.015686
v 0.017172 0.114881 -50.011795
v 0.344954 2.950940 -2.899943
v -100.490692 2.510913 25.362226
v 49.756050 -0.462370 49.822586
v 100.245956 1.645432 -25.168938
v -49.999737 0.012131 -49.999920
v -100.108925 1.092327 -24.908205
v -50.333065 1.704331 50.245869
v 99.749275 -0.475187 24.817654
v 50.389378 2.847719 -50.275974
v -1.848487 1.884065 -24.497772
v 0.034684 -0.001993 25.032187
v -50.431580 9.474670 -0.750652
v 51.312138 5.183606 0.201475
v 48.616318 -2.615532 23.991625
v -51.072456 5.504454 25.793806
v -49.294426 3.167365 -25.553143
v 50.313305 2.096006 -25.215197
v -100.631462 3.231277 37.966148
v 74.265495 -1.392157 49.465820
v 100.194183 1.299055 -37.633373
v -74.954193 0.019942 -49.949165
v -99.660912 2.598131 -12.506294
v -25.480492 2.458714 50.354694
v 99.890945 -0.198518 12.418279
v 25.499052 4.472301 -50.382607
v 0.420372 0.176939 -37.155815
v 0.130717 -0.142985 12.271462
v -74.744675 2.085115 -0.003382
v 25.575233 1.912027 -0.235889
v -100.330139 1.689322 12.743703
v 24.701122 -0.480673 49.800568
v 100.058113 0.388804 -12.539919
v -25.000000 0.000000 -50.000000
v -99.835022 -0.047013 -37.312321
v -75.475159 2.431465 50.350769
v 99.687073 -0.593101 37.272423
v 75.305847 4.270631 -50.288231
v 0.386470 -0.227674 -11.994694
v -0.133336 0.000000 37.598427
v -23.597580 2.674880 -1.059553
v 75.156754 1.048655 -0.107665
v 49.196362 -1.116760 11.795673
v 49.426231 -1.087496 37.082718
v 23.667778 -2.298435 24.078318
v 74.422363 -1.091443 24.578911
v -50.608467 11.398909 13.011601
v -50.774490 3.930776 38.063259
v -75.443672 1.609993 25.346437
v -26.722261 0.000000 26.275557
v -49.880249 1.890349 -37.491966
v -49.759388 5.645697 -12.631765
v -74.895210 2.120310 -24.988058
v -22.707438 1.472575 -27.054647
v 47.962696 14.319127 -37.082607
v 50.099350 0.559609 -12.531402
v 23.876562 1.727104 -23.870104
v 75.504890 4.785107 -25.396235
v 75.722351 1.594906 -12.465540
v 25.276867 2.680829 -13.063483
v 25.400082 2.703319 -37.775742
v -24.166889 -1.206234 -11.029255
v -75.666107 5.766548 -12.441934
v -74.960724 0.919229 -37.490833
v -25.854864 0.000000 38.126289
v -75.180397 0.910957 37.633507
v -75.586121 3.029459 12.933307
v 73.891930 -2.100185 36.694145
v 23.418079 -2.751775 36.401047
v 24.632219 -1.052603 11.969719
v 74.460617 -0.654673 11.999331
v -24.389671 2.813263 11.894558
v -25.002775 0.014288 -37.497952
v 76.261665 8.440409 -38.366577
vt 0.875000 0.125000
vt 0.875000 0.000000
vt 1.000000 0.000000
vt 1.000000 0.125000
vt 0.875000 0.625000
vt 0.875000 0.500000
vt 1.000000 0.500000
vt 1.000000 0.625000
vt 0.375000 0.625000
vt 0.375000 0.500000
vt 0.500000 0.500000
vt 0.500000 0.625000
vt 0.375000 0.125000
vt 0.375000 0.000000
vt 0.500000 0.000000
vt 0.500000 0.125000
vt 0.375000 0.375000
vt 0.375000 0.250000
vt 0.500000 0.250000
vt 0.500000 0.375000
vt 0.125000 0.375000
vt 0.125000 0.250000
vt 0.250000 0.250000
vt 0.250000 0.375000
vt 0.125000 0.125000
vt 0.125000 0.000000
vt 0.250000 0.000000
vt 0.250000 0.125000
vt 0.375000 0.875000
vt 0.375000 0.750000
vt 0.500000 0.750000
vt 0.500000 0.875000
vt 0.125000 0.875000
vt 0.125000 0.750000
vt 0.250000 0.750000
vt 0.250000 0.875000
vt 0.125000 0.625000
vt 0.125000 0.500000
vt 0.250000 0.500000
vt 0.250000 0.625000
vt 0.875000 0.875000
vt 0.875000 0.750000
vt 1.000000 0.750000
vt 1.000000 0.875000
vt 0.625000 0.875000
vt 0.625000 0.750000
vt 0.750000 0.750000
vt 0.750000 0.875000
vt 0.625000 0.625000
vt 0.625000 0.500000
vt 0.750000 0.500000
vt 0.750000 0.625000
vt 0.875000 0.375000
vt 0.875000 0.250000
vt 1.000000 0.250000
vt 1.000000 0.375000
vt 0.625000 0.375000
vt 0.625000 0.250000
vt 0.750000 0.250000
vt 0.750000 0.375000
vt 0.625000 0.125000
vt 0.625000 0.000000
vt 0.750000 0.000000
vt 0.750000 0.125000
vt 0.625000 1.000000
vt 0.750000 1.000000
vt 0.500000 1.000000
vt 0.875000 1.000000
vt 1.000000 1.000000
vt 0.000000 0.750000
vt 0.000000 0.625000
vt 0.000000 0.500000
vt 0.125000 1.000000
vt 0.250000 1.000000
vt 0.000000 1.000000
vt 0.000000 0.875000
vt 0.375000 1.000000
vt 0.000000 0.250000
vt 0.000000 0.125000
vt 0.000000 0.000000
vt 0.000000 0.375000
vn 0.2059 0.9620 -0.1791
vn -0.0055 1.0000 -0.0029
vn 0.0581 0.9926 0.1064
vn 0.0080 0.9965 0.0835
vn -0.0613 0.9328 0.3552
vn -0.0259 0.9988 -0.0417
vn -0.0422 0.9981 0.0448
vn -0.3040 0.9459 -0.1132
vn -0.1414 0.9854 0.0944
vn 0.0000 1.0000 -0.0001
vn -0.0192 0.9937 -0.1105
vn -0.0209 0.9718 -0.2347
vn -0.0360 0.9854 0.1664
vn -0.1862 0.9135 -0.3618
vn 0.0345 0.9991 0.0230
vn 0.0864 0.9815 0.1707
vn -0.0715 0.9809 0.1810
vn 0.0609 0.9850 -0.1616
vn 0.0428 0.9986 0.0327
vn -0.0537 0.9969 0.0579
vn -0.0336 0.9935 -0.1088
vn -0.0197 0.9888 -0.1480
vn -0.1335 0.9887 0.0679
vn -0.0466 0.9983 -0.0341
vn -0.2063 0.8682 0.4513
vn 0.1616 0.9867 0.0176
vn 0.2460 0.9144 -0.3215
vn -0.0443 0.9372 -0.3458
vn -0.0833 0.9757 -0.2026
vn -0.0489 0.9892 0.1381
vn -0.1433 0.9897 -0.0045
vn -0.0250 0.9987 -0.0439
vn -0.0401 0.9948 -0.0938
vn -0.0407 0.9942 -0.0997
vn 0.1872 0.9808 0.0549
vn 0.0637 0.9979 -0.0116
vn 0.0410 0.9931 -0.1100
vn 0.0637 0.9980 -0.0012
vn 0.0597 0.9966 -0.0568
vn -0.0464 0.9985 0.0286
vn -0.0134 0.9999 0.0042
vn -0.0089 0.9997 0.0239
vn -0.2350 0.9343 0.2682
vn -0.0101 0.9997 -0.0205
vn 0.0388 0.9978 -0.0532
vn -0.0520 0.9977 -0.0430
vn 0.1073 0.9940 0.0198
vn 0.0687 0.9926 -0.1006
vn -0.0313 0.9936 -0.1082
vn 0.0279 0.9757 0.2171
vn 0.0676 0.9966 0.0472
vn 0.0082 0.9936 0.1127
vn 0.0712 0.9424 0.3267
vn -0.0399 0.9962 0.0768
vn -0.0215 0.9994 0.0284
vn 0.2764 0.9589 -0.0640
vn 0.2581 0.9120 0.3189
vn 0.0590 0.9929 0.1030
vn 0.0377 0.9964 -0.0756
vn 0.0649 0.9895 -0.1293
vn -0.0038 0.9907 -0.1357
vn 0.0583 0.8489 -0.5253
vn 0.0649 0.8427 0.5345
vn 0.2024 0.9704 0.1319
usemtl None
s off
f 81/1/1 28/2/1 4/3/1 45/4/1
f 80/5/2 34/6/2 8/7/2 41/8/2
f 79/9/3 35/10/3 9/11/3 48/12/3
f 78/13/4 32/14/4 7/15/4 49/16/4
f 77/17/5 50/18/5 21/19/5 37/20/5
f 76/21/6 51/22/6 22/23/6 52/24/6
f 75/25/7 44/26/7 16/27/7 53/28/7
f 74/29/8 54/30/8 20/31/8 36/32/8
f 73/33/9 55/34/9 23/35/9 56/36/9
f 72/37/10 47/38/10 19/39/10 57/40/10
f 71/41/11 58/42/11 13/43/11 29/44/11
f 70/45/12 59/46/12 24/47/12 60/48/12
f 69/49/13 46/50/13 18/51/13 61/52/13
f 68/53/14 62/54/14 17/55/14 33/56/14
f 67/57/15 63/58/15 25/59/15 64/60/15
f 66/61/16 40/62/16 12/63/16 65/64/16
f 63/58/17 66/61/17 65/64/17 25/59/17
f 21/19/18 49/16/18 66/61/18 63/58/18
f 49/16/19 7/15/19 40/62/19 66/61/19
f 46/50/20 67/57/20 64/60/20 18/51/20
f 9/11/21 37/20/21 67/57/21 46/50/21
f 37/20/22 21/19/22 63/58/22 67/57/22
f 34/6/23 68/53/23 33/56/23 8/7/23
f 18/51/24 64/60/24 68/53/24 34/6/24
f 64/60/25 25/59/25 62/54/25 68/53/25
f 59/46/26 69/49/26 61/52/26 24/47/26
f 20/31/27 48/12/27 69/49/27 59/46/27
f 48/12/28 9/11/28 46/50/28 69/49/28
f 30/65/29 70/45/29 60/48/29 14/66/29
f 5/67/30 36/32/30 70/45/30 30/65/30
f 36/32/31 20/31/31 59/46/31 70/45/31
f 42/68/32 71/41/32 29/44/32 3/69/32
f 14/66/33 60/48/33 71/41/33 42/68/33
f 60/48/34 24/47/34 58/42/34 71/41/34
f 55/34/35 72/37/35 57/40/35 23/35/35
f 15/70/36 31/71/36 72/37/36 55/34/36
f 31/71/37 6/72/37 47/38/37 72/37/37
f 26/73/38 73/33/38 56/36/38 10/74/38
f 1/75/39 43/76/39 73/33/39 26/73/39
f 43/76/40 15/70/40 55/34/40 73/33/40
f 38/77/41 74/29/41 36/32/41 5/67/41
f 10/74/42 56/36/42 74/29/42 38/77/42
f 56/36/43 23/35/43 54/30/43 74/29/43
f 51/22/44 75/25/44 53/28/44 22/23/44
f 11/78/45 27/79/45 75/25/45 51/22/45
f 27/79/46 2/80/46 44/26/46 75/25/46
f 47/38/47 76/21/47 52/24/47 19/39/47
f 6/72/48 39/81/48 76/21/48 47/38/48
f 39/81/49 11/78/49 51/22/49 76/21/49
f 35/10/50 77/17/50 37/20/50 9/11/50
f 19/39/51 52/24/51 77/17/51 35/10/51
f 52/24/52 22/23/52 50/18/52 77/17/52
f 50/18/53 78/13/53 49/16/53 21/19/53
f 22/23/54 53/28/54 78/13/54 50/18/54
f 53/28/55 16/27/55 32/14/55 78/13/55
f 54/30/56 79/9/56 48/12/56 20/31/56
f 23/35/57 57/40/57 79/9/57 54/30/57
f 57/40/58 19/39/58 35/10/58 79/9/58
f 58/42/59 80/5/59 41/8/59 13/43/59
f 24/47/60 61/52/60 80/5/60 58/42/60
f 61/52/61 18/51/61 34/6/61 80/5/61
f 62/54/62 81/1/62 45/4/62 17/55/62
f 25/59/63 65/64/63 81/1/63 62/54/63
f 65/64/64 12/63/64 28/2/64 81/1/64
